<?xml version="1.0" encoding="UTF-8"?>
<!DOCTYPE svg PUBLIC "-//W3C//DTD SVG 1.1//EN" "http://www.w3.org/Graphics/SVG/1.1/DTD/svg11.dtd">
<!-- Creator: CorelDRAW 2020 (64 Bit) -->
<svg xmlns="http://www.w3.org/2000/svg" xml:space="preserve" width="18.7112mm" height="20.6798mm" version="1.1" style="shape-rendering:geometricPrecision; text-rendering:geometricPrecision; image-rendering:optimizeQuality; fill-rule:evenodd; clip-rule:evenodd"
viewBox="0 0 1871.12 2067.98"
 xmlns:xlink="http://www.w3.org/1999/xlink"
 xmlns:xodm="http://www.corel.com/coreldraw/odm/2003">
 <defs>
  <style type="text/css">
   <![CDATA[
    .fil5 {fill:black;fill-rule:nonzero}
    .fil3 {fill:#353CBF;fill-rule:nonzero}
    .fil2 {fill:#4049E3;fill-rule:nonzero}
    .fil1 {fill:#CFD8DC;fill-rule:nonzero}
    .fil0 {fill:whitesmoke;fill-rule:nonzero}
    .fil4 {fill:white;fill-rule:nonzero}
    .fil6 {fill:white;fill-rule:nonzero}
   ]]>
  </style>
 </defs>
 <g id="Camada_x0020_1">
  <metadata id="CorelCorpID_0Corel-Layer"/>
  <g id="_1561529109216">
   <path id="Shape" class="fil0" d="M1585.67 1473.52c0,424.71 -292.9,566.49 -654.34,566.49 -361.46,0 -654.36,-141.78 -654.36,-566.49 -4.66,-206.82 85.42,-404.45 244.6,-536.57l191.65 137.1 0 -155.8c66.23,-0.07 120.84,-51.94 124.31,-118.09 31.08,-4.39 62.41,-6.59 93.8,-6.55 74.26,-0.19 148.02,12.25 218.11,36.78l0 56.69 51.1 -36.45c227.16,101.27 385.13,331.54 385.13,622.89l0 0z"/>
   <path id="Shape_0" class="fil1" d="M1200.54 850.63l-39.07 28.04c197.45,111.83 330.73,327.45 330.73,594.85 0,406.17 -267.97,553.21 -607.62,565.3 15.58,0.55 30.98,1.19 46.75,1.19 361.44,0 654.34,-141.78 654.34,-566.49 0,-291.35 -157.97,-521.62 -385.13,-622.89z"/>
   <path class="fil2" d="M682.05 1198.69l498.56 0c154.84,0 280.42,125.58 280.42,280.43l0 0c0,154.86 -125.58,280.44 -280.42,280.44l-498.56 0c-154.85,0 -280.44,-125.58 -280.44,-280.44l0 0c0,-154.85 125.59,-280.43 280.44,-280.43z"/>
   <path id="Shape_1" class="fil3" d="M1180.61 1198.69l-93.5 0c154.89,0 280.45,125.56 280.45,280.43 0,154.88 -125.56,280.44 -280.45,280.44l93.5 0c154.87,0 280.42,-125.56 280.42,-280.44 0,-154.87 -125.55,-280.43 -280.42,-280.43z"/>
   <circle id="Oval" class="fil4" cx="650.88" cy="1447.97" r="93.47"/>
   <circle id="Oval_2" class="fil4" cx="1211.75" cy="1447.97" r="93.47"/>
   <path id="Shape_3" class="fil2" d="M1834.95 167.45l0 439.21c0,68.82 -55.79,124.64 -124.64,124.64l-342.75 0 -167.02 119.33 -51.1 36.45 0 -155.78c-68.84,0 -124.64,-55.82 -124.64,-124.64l0 -439.21c0,-68.85 55.8,-124.64 124.64,-124.64l560.87 0c68.85,0 124.64,55.79 124.64,124.61l0 0.03z"/>
   <path id="Shape_4" class="fil3" d="M1710.31 42.81l-93.47 0c68.82,0 124.64,55.79 124.64,124.61l0 439.24c0,68.82 -55.82,124.64 -124.64,124.64l93.47 0c68.85,0 124.64,-55.82 124.64,-124.64l0 -439.21c0,-68.85 -55.79,-124.64 -124.64,-124.64l0 0z"/>
   <path id="Shape_5" class="fil2" d="M837.86 544.33l0 249.28c0.04,2.18 -0.07,4.37 -0.33,6.55 -3.47,66.15 -58.08,118 -124.31,118.09l0 155.8 -191.65 -137.1 -26.47 -18.7 -342.77 0c-68.83,0 -124.64,-55.8 -124.64,-124.64l0 -249.28c0,-68.83 55.81,-124.64 124.64,-124.64l560.89 0c68.82,0 124.64,55.81 124.64,124.64z"/>
   <path id="Shape_6" class="fil3" d="M713.22 419.69l-93.5 0c68.84,0 124.64,55.81 124.64,124.64l0 249.28c0.06,2.18 -0.04,4.37 -0.31,6.55 -3.47,66.15 -58.08,118 -124.33,118.09l0 88.94 93.5 66.86 0 -155.8c66.23,-0.09 120.84,-51.94 124.31,-118.09 0.26,-2.18 0.37,-4.37 0.33,-6.55l0 -249.28c0,-68.83 -55.82,-124.64 -124.64,-124.64l0 0z"/>
   <path id="Shape_7" class="fil5" d="M370.46 1479.12c0.18,172.02 139.57,311.42 311.59,311.61l498.56 0c172.08,0 311.59,-139.51 311.59,-311.61 0,-172.09 -139.51,-311.59 -311.59,-311.59l-498.56 0c-172.02,0.18 -311.41,139.59 -311.59,311.59zm1059.43 0c-0.16,137.6 -111.67,249.13 -249.28,249.28l-498.56 0c-137.67,0 -249.28,-111.59 -249.28,-249.28 0,-137.67 111.61,-249.26 249.28,-249.26l498.56 -0.02c137.61,0.16 249.12,111.67 249.28,249.28l0 0z"/>
   <path id="Shape_8" class="fil5" d="M837.86 1105.22l186.94 0c17.22,0 31.17,-13.97 31.17,-31.17 0,-17.22 -13.95,-31.16 -31.17,-31.16l-186.94 0c-17.22,0 -31.17,13.94 -31.17,31.16 0,17.22 13.95,31.17 31.17,31.17l0 0z"/>
   <path id="Shape_9" class="fil5" d="M900.16 1011.72l62.33 0c17.2,0 31.15,-13.95 31.15,-31.14 0,-17.22 -13.95,-31.17 -31.15,-31.17l-62.33 0c-17.21,0 -31.16,13.95 -31.16,31.17 0,17.19 13.95,31.14 31.16,31.14z"/>
   <path id="Shape_10" class="fil5" d="M526.25 1447.97c0,68.83 55.81,124.64 124.63,124.64 68.85,0 124.64,-55.81 124.64,-124.64 0,-68.84 -55.79,-124.64 -124.64,-124.64 -68.82,0 -124.63,55.8 -124.63,124.64zm186.97 0c0,34.41 -27.92,62.31 -62.34,62.31 -34.41,0 -62.3,-27.9 -62.3,-62.31 0,-34.43 27.89,-62.33 62.3,-62.33 34.42,0 62.34,27.9 62.34,62.33z"/>
   <path id="Shape_11" class="fil5" d="M1211.75 1572.61c68.85,0 124.64,-55.81 124.64,-124.64 0,-68.84 -55.79,-124.64 -124.64,-124.64 -68.82,0 -124.64,55.8 -124.64,124.64 0,68.83 55.82,124.64 124.64,124.64zm0 -186.97c34.44,0 62.33,27.9 62.33,62.33 0,34.41 -27.89,62.31 -62.33,62.31 -34.41,0 -62.31,-27.9 -62.31,-62.31 0,-34.43 27.9,-62.33 62.31,-62.33z"/>
   <path id="Shape_12" class="fil5" d="M931.33 1634.92c42.23,1.82 83.57,-12.6 115.51,-40.29 12.05,-12.01 12.11,-31.52 0.14,-43.63 -11.92,-12.19 -31.43,-12.6 -43.86,-0.9 -20.47,15.87 -45.93,23.86 -71.79,22.51 -25.79,1.35 -51.22,-6.58 -71.66,-22.34 -12.42,-10.93 -31.21,-10.25 -42.81,1.53 -11.6,11.8 -11.97,30.59 -0.82,42.83 31.88,27.65 73.12,42.05 115.29,40.29l0 0z"/>
   <path id="Shape_13" class="fil5" d="M1710.31 11.64l-560.87 0c-86,0.1 -155.7,69.8 -155.8,155.81l0 439.21c0.08,74.01 52.16,137.79 124.64,152.68l0 29.06c-60.84,-17.16 -123.74,-25.9 -186.95,-25.96 -21.04,0 -41.79,1.27 -62.33,3.13l0 -221.22c-0.1,-86.02 -69.81,-155.71 -155.78,-155.83l-560.89 0c-86,0.12 -155.69,69.81 -155.79,155.81l0 249.28c0.1,86 69.79,155.7 155.79,155.8l308.48 0c-140.3,137.96 -217.99,327.36 -214.99,524.11 0,390.97 237.03,597.63 685.51,597.63 448.48,0 685.51,-206.66 685.51,-597.63 0,-271.75 -135.12,-507.4 -355.97,-627.71l116.66 -83.37 332.78 0c86.02,-0.08 155.71,-69.78 155.81,-155.78l0 -439.21c-0.1,-86.01 -69.79,-155.71 -155.81,-155.81zm-1651.46 781.97l0 -249.28c0,-51.63 41.85,-93.48 93.48,-93.48l560.89 0c51.62,0 93.47,41.85 93.47,93.48l0 249.28c0,51.62 -41.85,93.47 -93.47,93.47 -17.22,0 -31.17,13.95 -31.17,31.17l0 95.25 -168.86 -120.62c-5.28,-3.76 -11.62,-5.8 -18.11,-5.8l-342.75 0c-51.63,0 -93.48,-41.85 -93.48,-93.47l0 0zm1495.68 679.91c0,355.21 -209.68,535.32 -623.2,535.32 -413.52,0 -623.2,-180.11 -623.2,-535.32 -3.49,-188.93 74.91,-370.12 215.01,-496.91l171.9 122.81c9.5,6.8 22.01,7.74 32.43,2.39 10.4,-5.36 16.91,-16.08 16.91,-27.76l0 -127.76c59.59,-12.38 106.55,-58.33 120.17,-117.66 22.18,-2.43 44.46,-3.74 66.78,-3.86 63.41,0.04 126.44,9.7 186.95,28.67l0 33.64c0,11.68 6.51,22.38 16.89,27.71 10.39,5.33 22.87,4.44 32.37,-2.34l35.94 -25.68c216.87,104.26 351.05,327.18 351.05,586.75l0 0zm249.26 -866.86c0,51.62 -41.85,93.47 -93.48,93.47l-342.75 0c-6.5,0 -12.83,2.02 -18.1,5.8l-168.85 120.62 0 -95.25c0,-17.22 -13.97,-31.17 -31.17,-31.17 -51.62,0 -93.47,-41.85 -93.47,-93.47l0 -439.21c0,-51.63 41.85,-93.5 93.47,-93.5l560.87 0c51.63,0 93.48,41.87 93.48,93.47l0 439.24z"/>
   <path id="Shape_14" class="fil6" d="M183.49 606.66l498.56 0c17.22,0 31.17,-13.95 31.17,-31.17 0,-17.22 -13.95,-31.16 -31.17,-31.16l-498.56 0c-17.22,0 -31.16,13.94 -31.16,31.16 0,17.22 13.94,31.17 31.16,31.17z"/>
   <path id="Shape_15" class="fil6" d="M339.3 668.97l-155.81 0c-17.22,0 -31.16,13.94 -31.16,31.16 0,17.22 13.94,31.17 31.16,31.17l155.81 0c17.19,0 31.16,-13.95 31.16,-31.17 0,-17.22 -13.97,-31.16 -31.16,-31.16z"/>
   <g id="_1561719581872">
    <g>
     <polygon class="fil6" points="1434.57,247.56 1434.57,417.34 1542.77,417.34 1542.77,387.48 1464.42,387.48 1464.42,247.56 "/>
     <path class="fil6" d="M1726 383.68c0,-142.24 -115.88,-257.96 -258.14,-257.96 -127.59,0 -233.8,93.86 -254.33,215.11l-41.44 0 71.46 123.13 73.54 -123.13 -42.82 0c19.58,-89.55 99.05,-155.39 193.73,-155.39 109.34,0 198.3,88.94 198.3,198.26 0,94.48 -67.56,173.72 -155.25,193.51l0 60.86c121.27,-20.55 214.95,-126.79 214.95,-254.39z"/>
     <path class="fil6" d="M1215.92 611.07l18.97 -20.18c12.34,-13.42 20.79,-23.47 25.39,-30.27 4.59,-6.82 6.9,-14.62 6.9,-23.48 0,-13.15 -4.33,-23.51 -12.97,-31.11 -8.64,-7.57 -20.66,-11.35 -36.08,-11.35 -14.52,0 -26.19,4.51 -34.99,13.54 -8.8,9.03 -13.03,20.28 -12.7,33.27l0.18 0.83 31.8 0c0,-7.47 1.39,-11.96 4.19,-16.11 2.8,-4.14 6.64,-6.35 11.52,-6.35 5.45,0 9.55,1.55 12.29,4.76 2.72,3.23 4.09,7.49 4.09,12.88 0,3.8 -1.35,8.24 -4.05,13.38 -2.69,5.15 -6.59,10.97 -12.29,17.52l-44.79 47.41 0 21.66 97.01 0 0 -26.12 -54.18 0 -0.29 -0.28 0 0z"/>
     <path class="fil6" d="M1359.94 497.56l-31.71 0 0 -0.55 -56.62 90.63 1.58 19.98 55.04 0 0 29.85 31.71 0 0 -29.85 14.93 0 0 -24.25 -14.93 0 0 -85.81zm-31.71 85.81l-27.88 0 24.1 -40.09 2.86 -4.2 0.92 -0.06 0 44.35 0 0z"/>
     <path class="fil6" d="M1481.21 637.47l0 -60.39c0,-4.49 0.1,-8.61 -0.39,-12.43 -1.26,-9.62 -3.86,-17.18 -8.27,-22.55 -6.19,-7.52 -14.56,-11.27 -25.34,-11.27 -5.48,0 -10.07,1.3 -14.58,3.9 -4.54,2.59 -9.26,6.25 -11.11,10.94l0 -49.99 -33.6 0 0 141.79 33.6 0 0 -76.3c0,-1.67 3.1,-2.96 5.41,-3.9 2.33,-0.94 4.88,-1.38 8.02,-1.38 4.95,0 8.58,1.51 10.97,4.51 2.43,3.02 3.58,8.52 3.58,16.48l0 60.59 11.33 0 -270.05 0 290.43 0z"/>
    </g>
   </g>
  </g>
 </g>
</svg>
