<?xml version="1.0"?>
<svg xmlns="http://www.w3.org/2000/svg" xmlns:xlink="http://www.w3.org/1999/xlink" xmlns:svgjs="http://svgjs.com/svgjs" version="1.1" width="512" height="512" x="0" y="0" viewBox="0 0 512 512" style="enable-background:new 0 0 512 512" xml:space="preserve" class=""><g><path xmlns="http://www.w3.org/2000/svg" d="m123.347656 67.632812h264.515625v336.65625h-264.515625zm0 0" fill="#e33b39" data-original="#00e9cc" style="" class=""/><path xmlns="http://www.w3.org/2000/svg" d="m255.605469 481.941406c-15.195313 0-27.554688-12.359375-27.554688-27.554687 0-15.191407 12.359375-27.554688 27.554688-27.554688 15.195312 0 27.554687 12.363281 27.554687 27.554688 0 15.195312-12.359375 27.554687-27.554687 27.554687zm0-40.078125c-6.90625 0-12.523438 5.617188-12.523438 12.523438s5.617188 12.523437 12.523438 12.523437 12.523437-5.617187 12.523437-12.523437-5.617187-12.523438-12.523437-12.523438zm0 0" fill="#000000" data-original="#000000" style="" class=""/><path xmlns="http://www.w3.org/2000/svg" d="m194.484375 282.550781c-15.191406 0-27.550781 12.359375-27.550781 27.554688v40.078125h15.027344v-16.03125h25.050781v16.03125h15.027343v-40.078125c0-15.195313-12.359374-27.554688-27.554687-27.554688zm-12.523437 36.574219v-9.019531c0-6.90625 5.617187-12.523438 12.523437-12.523438s12.527344 5.617188 12.527344 12.523438v9.019531zm0 0" fill="#000000" data-original="#000000" style="" class=""/><path xmlns="http://www.w3.org/2000/svg" d="m252.097656 350.183594h-15.027344v-67.632813h27.550782c12.984375 0 23.546875 10.5625 23.546875 23.546875s-10.5625 23.546875-23.546875 23.546875h-12.523438zm0-35.570313h12.523438c4.699218 0 8.519531-3.820312 8.519531-8.515625 0-4.695312-3.820313-8.515625-8.519531-8.515625h-12.523438zm0 0" fill="#000000" data-original="#000000" style="" class=""/><path xmlns="http://www.w3.org/2000/svg" d="m344.78125 297.582031v-15.03125h-46.09375v15.03125h15.53125v38.074219h-15.53125v15.027344h46.09375v-15.027344h-15.53125v-38.074219zm0 0" fill="#000000" data-original="#000000" style="" class=""/><path xmlns="http://www.w3.org/2000/svg" d="m274.933594 265.519531h-38.65625l-8.867188-20.109375-11.878906-6.859375-21.847656 2.375-19.328125-33.476562 12.980469-17.734375v-13.714844l-12.980469-17.734375 19.328125-33.476563 21.847656 2.375 11.878906-6.859374 8.867188-20.105469h38.65625l8.867187 20.105469 11.878907 6.859374 21.847656-2.375 19.332031 33.476563-12.984375 17.734375v13.714844l12.984375 17.734375-19.332031 33.476562-21.847656-2.375-11.878907 6.859375zm-28.859375-15.03125h19.0625l6.894531-15.636719 20.386719-11.773437 16.992187 1.847656 9.53125-16.503906-10.097656-13.792969v-23.542968l10.097656-13.792969-9.53125-16.507813-16.992187 1.847656-20.386719-11.769531-6.894531-15.636719h-19.0625l-6.894531 15.636719-20.386719 11.773438-16.992188-1.847657-9.53125 16.503907 10.097657 13.792969v23.542968l-10.097657 13.792969 9.53125 16.503906 16.992188-1.847656 20.386719 11.773437zm0 0" fill="#000000" data-original="#000000" style="" class=""/><path xmlns="http://www.w3.org/2000/svg" d="m255.605469 217.425781c-19.058594 0-34.566407-15.507812-34.566407-34.570312 0-19.058594 15.507813-34.566407 34.566407-34.566407 19.058593 0 34.566406 15.507813 34.566406 34.566407 0 19.0625-15.507813 34.570312-34.566406 34.570312zm0-54.105469c-10.773438 0-19.539063 8.765626-19.539063 19.535157 0 10.773437 8.765625 19.539062 19.539063 19.539062 10.773437 0 19.539062-8.765625 19.539062-19.539062 0-10.769531-8.765625-19.535157-19.539062-19.535157zm0 0" fill="#000000" data-original="#000000" style="" class=""/><path xmlns="http://www.w3.org/2000/svg" d="m52.90625 356.5-52.90625-52.90625h153.40625v15.027344h-117.125l27.25 27.25zm0 0" fill="#000000" data-original="#000000" style="" class=""/><path xmlns="http://www.w3.org/2000/svg" d="m153.511719 168.328125h-153.40625v-15.027344h117.125l-27.25-27.25 10.625-10.628906zm0 0" fill="#000000" data-original="#000000" style="" class=""/><path xmlns="http://www.w3.org/2000/svg" d="m30.164062 205.902344h60.117188v60.117187h-60.117188zm0 0" fill="#e33b39" data-original="#00e9cc" style="" class=""/><path xmlns="http://www.w3.org/2000/svg" d="m511.210938 168.328125h-153.40625v-15.027344h117.121093l-27.25-27.25 10.628907-10.628906zm0 0" fill="#000000" data-original="#000000" style="" class=""/><path xmlns="http://www.w3.org/2000/svg" d="m350.792969 512h-190.375c-20.71875 0-37.570313-16.855469-37.570313-37.574219v-77.652343h265.515625v77.652343c0 20.71875-16.855469 37.574219-37.570312 37.574219zm-212.917969-100.195312v62.621093c0 12.433594 10.113281 22.542969 22.542969 22.542969h190.375c12.429687 0 22.542969-10.109375 22.542969-22.542969v-62.621093zm0 0" fill="#000000" data-original="#000000" style="" class=""/><path xmlns="http://www.w3.org/2000/svg" d="m388.363281 75.148438h-265.515625v-37.574219c0-20.71875 16.851563-37.574219 37.570313-37.574219h190.375c20.714843 0 37.570312 16.855469 37.570312 37.574219zm-250.488281-15.03125h235.460938v-22.542969c0-12.433594-10.113282-22.542969-22.542969-22.542969h-190.375c-12.429688 0-22.542969 10.109375-22.542969 22.542969zm0 0" fill="#000000" data-original="#000000" style="" class=""/><path xmlns="http://www.w3.org/2000/svg" d="m410.605469 356.5-52.90625-52.90625h153.40625v15.027344h-117.125l27.25 27.25zm0 0" fill="#000000" data-original="#000000" style="" class=""/><path xmlns="http://www.w3.org/2000/svg" d="m420.929688 205.902344h60.117187v60.117187h-60.117187zm0 0" fill="#e33b39" data-original="#00e9cc" style="" class=""/><path xmlns="http://www.w3.org/2000/svg" d="m355.800781 381.746094h-63.125v-15.03125h63.125zm-78.152343 0h-15.03125v-15.03125h15.03125zm-30.058594 0h-15.03125v-15.03125h15.03125zm-30.058594 0h-62.121094v-15.03125h62.121094zm0 0" fill="#000000" data-original="#000000" style="" class=""/><path xmlns="http://www.w3.org/2000/svg" d="m220.535156 30.058594h60.117188v15.03125h-60.117188zm0 0" fill="#000000" data-original="#000000" style="" class=""/><path xmlns="http://www.w3.org/2000/svg" d="m52.707031 228.445312h15.03125v15.03125h-15.03125zm0 0" fill="#000000" data-original="#000000" style="" class=""/><path xmlns="http://www.w3.org/2000/svg" d="m443.472656 228.445312h15.027344v15.03125h-15.027344zm0 0" fill="#000000" data-original="#000000" style="" class=""/></g></svg>
