<?xml version="1.0"?>
<svg xmlns="http://www.w3.org/2000/svg" xmlns:xlink="http://www.w3.org/1999/xlink" xmlns:svgjs="http://svgjs.com/svgjs" version="1.1" width="512" height="512" x="0" y="0" viewBox="0 0 256 256" style="enable-background:new 0 0 512 512" xml:space="preserve" class=""><g><g xmlns="http://www.w3.org/2000/svg" id="Layer_43"><g><g><g><circle cx="127.5" cy="43.973" fill="#c8094f" r="31.352" data-original="#fc657e" style="" class=""/></g></g><g><g><path d="m137.482 56.365h-19.963c-5.94 0-10.966 3.91-12.647 9.296 5.706 5.953 13.732 9.665 22.629 9.665s16.922-3.712 22.629-9.665c-1.682-5.387-6.709-9.296-12.648-9.296z" fill="#ffffff" data-original="#70d6f9" style="" class=""/></g></g><g><g><circle cx="127.5" cy="128" fill="#ffffff" r="31.352" data-original="#f5c84c" style="" class=""/></g></g><g><g><path d="m137.482 140.391h-19.963c-5.94 0-10.966 3.91-12.647 9.296 5.706 5.952 13.732 9.665 22.629 9.665s16.922-3.712 22.629-9.665c-1.682-5.386-6.709-9.296-12.648-9.296z" fill="#ffffff" data-original="#70d6f9" style="" class=""/></g></g><g><g><circle cx="127.5" cy="212.027" fill="#4049e3" r="31.352" data-original="#87d147" style="" class=""/></g></g><g><g><path d="m137.482 224.418h-19.963c-5.94 0-10.966 3.91-12.647 9.296 5.706 5.953 13.732 9.665 22.629 9.665s16.922-3.712 22.629-9.665c-1.682-5.386-6.709-9.296-12.648-9.296z" fill="#ffffff" data-original="#70d6f9" style="" class=""/></g></g><g><g><path d="m204.655 37.973h-25.615c-3.313 0-6 2.687-6 6s2.687 6 6 6h25.615c12.872 0 23.345 10.473 23.345 23.345v25.336c0 12.873-10.473 23.346-23.345 23.346h-12.226l5.642-5.642c2.343-2.343 2.343-6.142-.001-8.485-2.342-2.343-6.142-2.343-8.485 0l-15.656 15.657c-2.343 2.343-2.343 6.142 0 8.485l15.656 15.657c2.342 2.342 6.142 2.344 8.485 0 2.344-2.343 2.344-6.142.001-8.485l-5.186-5.187h11.77c19.49 0 35.345-15.856 35.345-35.345v-25.337c0-19.489-15.855-35.345-35.345-35.345z" fill="#ffffff" data-original="#9be5f9" style="" class=""/></g></g><g><g><path d="m81.071 207.529-15.657-15.657c-2.344-2.343-6.143-2.343-8.485 0-2.343 2.343-2.343 6.142 0 8.485l5.669 5.669h-11.253c-12.872.001-23.345-10.472-23.345-23.344v-25.336c0-12.873 10.473-23.346 23.345-23.346h24.155c3.313 0 6-2.687 6-6s-2.687-6-6-6h-24.155c-19.489 0-35.345 15.856-35.345 35.345v25.336c0 19.489 15.856 35.345 35.345 35.345h10.743l-5.159 5.159c-2.343 2.343-2.343 6.142 0 8.485 2.342 2.342 6.142 2.344 8.485 0l15.657-15.657c2.342-2.34 2.343-6.141 0-8.484z" fill="#ffffff" data-original="#70d6f9" style="" class=""/></g></g><g><g><path d="m164.876 6.21c-3.158-.561-5.613-3.017-6.245-6.104 0-.14-.281-.14-.281 0-.631 3.087-3.087 5.543-6.245 6.104-.14 0-.14.21 0 .281 3.158.562 5.613 3.017 6.245 6.104 0 .14.281.14.281 0 .631-3.087 3.087-5.543 6.245-6.104.14-.071.14-.281 0-.281z" fill="#ffffff" data-original="#70d6f9" style="" class=""/></g></g><g><g><path d="m186.7 224.068h-2.3v-2.3c0-1.7-1.4-3.2-3.2-3.2s-3.2 1.4-3.2 3.2v2.3h-2.3c-1.7 0-3.2 1.4-3.2 3.2s1.4 3.2 3.2 3.2h2.3v2.3c0 1.7 1.4 3.2 3.2 3.2s3.2-1.4 3.2-3.2v-2.3h2.3c1.7 0 3.2-1.4 3.2-3.2s-1.4-3.2-3.2-3.2z" fill="#ffffff" data-original="#70d6f9" style="" class=""/></g></g><g><g><path d="m156.8 249.2c-1.878 0-3.4 1.522-3.4 3.4s1.522 3.4 3.4 3.4 3.4-1.522 3.4-3.4-1.522-3.4-3.4-3.4z" fill="#ffffff" data-original="#f5c84c" style="" class=""/></g></g><g><g><path d="m69.8 97.818c-4.5-.8-8-4.3-8.9-8.7 0-.2-.4-.2-.4 0-.9 4.4-4.4 7.9-8.9 8.7-.2 0-.2.3 0 .4 4.5.8 8 4.3 8.9 8.7 0 .2.4.2.4 0 .9-4.4 4.4-7.9 8.9-8.7.2-.1.2-.4 0-.4z" fill="#ffffff" data-original="#f5c84c" style="" class=""/></g></g><g><g><path d="m86.6 76.968c-1.878 0-3.4 1.522-3.4 3.4s1.522 3.4 3.4 3.4 3.4-1.522 3.4-3.4-1.522-3.4-3.4-3.4z" fill="#c8094f" data-original="#fc657e" style="" class=""/></g></g><g><g><g><path d="m127.5 10.121c-18.666 0-33.852 15.186-33.852 33.852s15.186 33.852 33.852 33.852 33.852-15.186 33.852-33.852-15.186-33.852-33.852-33.852zm0 62.704c-15.909 0-28.852-12.943-28.852-28.852s12.943-28.852 28.852-28.852 28.852 12.943 28.852 28.852-12.943 28.852-28.852 28.852z" fill="#000000" data-original="#000000" style="" class=""/></g></g></g><g><g><circle cx="126.994" cy="36.389" fill="#f9d0b4" r="11.092" data-original="#f9d0b4" style="" class=""/></g></g><g><g><path d="m152.243 64.122c-2.281-6.135-8.214-10.257-14.762-10.257h-19.963c-6.652 0-12.616 4.21-14.842 10.476-.462 1.301.218 2.73 1.519 3.193.277.098.559.145.837.145 1.028 0 1.992-.639 2.356-1.664 1.519-4.276 5.59-7.149 10.13-7.149h19.963c4.47 0 8.519 2.813 10.076 7 .481 1.294 1.923 1.954 3.214 1.472 1.295-.483 1.954-1.921 1.472-3.216z" fill="#000000" data-original="#000000" style="" class=""/></g></g><g><g><g><path d="m126.994 22.797c-7.495 0-13.592 6.097-13.592 13.592s6.097 13.592 13.592 13.592 13.591-6.097 13.591-13.592-6.097-13.592-13.591-13.592zm0 22.184c-4.737 0-8.592-3.854-8.592-8.592s3.854-8.592 8.592-8.592c4.737 0 8.591 3.854 8.591 8.592s-3.855 8.592-8.591 8.592z" fill="#000000" data-original="#000000" style="" class=""/></g></g></g><g><g><g><path d="m127.5 94.148c-18.666 0-33.852 15.186-33.852 33.852s15.186 33.852 33.852 33.852 33.852-15.186 33.852-33.852-15.186-33.852-33.852-33.852zm0 62.704c-15.909 0-28.852-12.943-28.852-28.852s12.943-28.852 28.852-28.852 28.852 12.943 28.852 28.852-12.943 28.852-28.852 28.852z" fill="#000000" data-original="#000000" style="" class=""/></g></g></g><g><g><circle cx="126.994" cy="120.416" fill="#f9d0b4" r="11.092" data-original="#f9d0b4" style="" class=""/></g></g><g><g><path d="m152.199 148.03c-2.313-6.064-8.227-10.139-14.718-10.139h-19.963c-6.521 0-12.445 4.1-14.742 10.201-.486 1.292.167 2.734 1.459 3.221.291.109.588.161.88.161 1.011 0 1.963-.618 2.34-1.62 1.567-4.165 5.611-6.963 10.062-6.963h19.963c4.431 0 8.468 2.781 10.046 6.92.492 1.292 1.94 1.938 3.227 1.445 1.291-.491 1.938-1.936 1.446-3.226z" fill="#000000" data-original="#000000" style="" class=""/></g></g><g><g><g><path d="m126.994 106.824c-7.495 0-13.592 6.097-13.592 13.592s6.097 13.592 13.592 13.592 13.591-6.097 13.591-13.592-6.097-13.592-13.591-13.592zm0 22.184c-4.737 0-8.592-3.854-8.592-8.592s3.854-8.592 8.592-8.592c4.737 0 8.591 3.854 8.591 8.592s-3.855 8.592-8.591 8.592z" fill="#000000" data-original="#000000" style="" class=""/></g></g></g><g><g><g><path d="m127.5 178.175c-18.666 0-33.852 15.186-33.852 33.852s15.186 33.852 33.852 33.852 33.852-15.186 33.852-33.852-15.186-33.852-33.852-33.852zm0 62.704c-15.909 0-28.852-12.943-28.852-28.852s12.943-28.852 28.852-28.852 28.852 12.943 28.852 28.852-12.943 28.852-28.852 28.852z" fill="#000000" data-original="#000000" style="" class=""/></g></g></g><g><g><circle cx="126.994" cy="204.443" fill="#f9d0b4" r="11.092" data-original="#f9d0b4" style="" class=""/></g></g><g><g><path d="m152.303 232.337c-2.24-6.232-8.196-10.419-14.821-10.419h-19.963c-6.702 0-12.682 4.252-14.879 10.582-.453 1.304.238 2.729 1.542 3.182.271.094.548.139.82.139 1.035 0 2.003-.648 2.362-1.681 1.5-4.319 5.581-7.221 10.155-7.221h19.963c4.522 0 8.588 2.857 10.116 7.11.467 1.3 1.9 1.972 3.198 1.507 1.299-.468 1.974-1.9 1.507-3.199z" fill="#000000" data-original="#000000" style="" class=""/></g></g><g><g><g><path d="m126.994 190.851c-7.495 0-13.592 6.097-13.592 13.592s6.097 13.592 13.592 13.592 13.591-6.097 13.591-13.592-6.097-13.592-13.591-13.592zm0 22.184c-4.737 0-8.592-3.854-8.592-8.592s3.854-8.592 8.592-8.592c4.737 0 8.591 3.854 8.591 8.592s-3.855 8.592-8.591 8.592z" fill="#000000" data-original="#000000" style="" class=""/></g></g></g><g><g><g><path d="m204.655 35.473h-25.615c-4.687 0-8.5 3.813-8.5 8.5s3.813 8.5 8.5 8.5h25.615c11.494 0 20.845 9.351 20.845 20.845v25.336c0 11.494-9.351 20.845-20.845 20.845h-6.19l1.374-1.375c3.314-3.314 3.313-8.707 0-12.021-1.605-1.605-3.739-2.489-6.011-2.489-2.271 0-4.405.884-6.011 2.489l-15.656 15.657c-3.313 3.314-3.313 8.707 0 12.021l15.656 15.657c1.604 1.605 3.739 2.49 6.01 2.49h.001c2.271 0 4.405-.884 6.01-2.489 3.314-3.314 3.315-8.707.001-12.021l-.918-.918h5.734c20.867 0 37.845-16.978 37.845-37.845v-25.337c0-20.867-16.978-37.845-37.845-37.845zm32.845 63.182c0 18.111-14.734 32.845-32.845 32.845h-11.771c-1.011 0-1.923.609-2.31 1.543s-.173 2.009.542 2.725l5.187 5.186c1.364 1.365 1.364 3.585-.002 4.951-.66.661-1.539 1.024-2.474 1.024-.936 0-1.814-.364-2.476-1.025l-15.656-15.657c-1.364-1.365-1.364-3.585 0-4.95l15.656-15.656c.661-.661 1.541-1.025 2.476-1.025.936 0 1.813.364 2.475 1.025 1.365 1.364 1.365 3.585.001 4.95l-5.642 5.642c-.715.715-.929 1.79-.542 2.724.387.935 1.299 1.543 2.31 1.543h12.226c14.251 0 25.845-11.594 25.845-25.845v-25.337c0-14.251-11.594-25.845-25.845-25.845h-25.615c-1.93 0-3.5-1.57-3.5-3.5s1.57-3.5 3.5-3.5h25.615c18.11 0 32.845 14.734 32.845 32.845z" fill="#000000" data-original="#000000" style="" class=""/></g></g></g><g><g><g><path d="m82.839 205.762-15.657-15.657c-3.315-3.313-8.707-3.313-12.021 0-1.605 1.605-2.49 3.74-2.49 6.01s.884 4.405 2.49 6.01l1.401 1.401h-5.217c-11.494 0-20.845-9.351-20.845-20.845v-25.336c0-11.494 9.351-20.845 20.845-20.845h24.155c4.687 0 8.5-3.813 8.5-8.5s-3.813-8.5-8.5-8.5h-24.155c-20.868 0-37.845 16.977-37.845 37.845v25.336c0 20.868 16.977 37.845 37.845 37.845h4.707l-.891.892c-3.314 3.314-3.314 8.707 0 12.021 1.657 1.658 3.833 2.486 6.01 2.486 2.176 0 4.354-.829 6.01-2.486l15.657-15.657c1.605-1.604 2.489-3.739 2.489-6.01.001-2.271-.883-4.405-2.488-6.01zm-3.535 8.485-15.657 15.657c-1.365 1.364-3.585 1.364-4.95 0-.661-.661-1.025-1.54-1.025-2.475s.364-1.814 1.025-2.475l5.159-5.159c.715-.715.929-1.79.542-2.724-.387-.935-1.298-1.543-2.31-1.543h-10.743c-18.111 0-32.845-14.734-32.845-32.845v-25.336c0-18.111 14.734-32.845 32.845-32.845h24.155c1.93 0 3.5 1.57 3.5 3.5s-1.57 3.5-3.5 3.5h-24.155c-14.251 0-25.845 11.594-25.845 25.845v25.336c0 14.251 11.594 25.845 25.845 25.845h11.252c1.011 0 1.923-.609 2.31-1.543s.173-2.009-.542-2.724l-5.669-5.669c-1.364-1.365-1.364-3.585 0-4.95 1.366-1.365 3.585-1.363 4.95 0l15.657 15.657c.66.661 1.024 1.54 1.024 2.475s-.363 1.812-1.023 2.473z" fill="#000000" data-original="#000000" style="" class=""/></g></g></g></g></g></g></svg>
