<?xml version="1.0" encoding="UTF-8"?>
<!DOCTYPE svg PUBLIC "-//W3C//DTD SVG 1.1//EN" "http://www.w3.org/Graphics/SVG/1.1/DTD/svg11.dtd">
<!-- Creator: CorelDRAW 2020 (64 Bit) -->
<svg xmlns="http://www.w3.org/2000/svg" xml:space="preserve" width="18.7112mm" height="17.5258mm" version="1.1" style="shape-rendering:geometricPrecision; text-rendering:geometricPrecision; image-rendering:optimizeQuality; fill-rule:evenodd; clip-rule:evenodd"
viewBox="0 0 1871.12 1752.58"
 xmlns:xlink="http://www.w3.org/1999/xlink"
 xmlns:xodm="http://www.corel.com/coreldraw/odm/2003">
 <defs>
  <style type="text/css">
   <![CDATA[
    .fil0 {fill:#4049E3}
    .fil8 {fill:#161B87;fill-rule:nonzero}
    .fil1 {fill:#1C2299;fill-rule:nonzero}
    .fil6 {fill:#2C2133;fill-rule:nonzero}
    .fil2 {fill:#4049E3;fill-rule:nonzero}
    .fil5 {fill:#C8094F;fill-rule:nonzero}
    .fil4 {fill:#EFA492;fill-rule:nonzero}
    .fil3 {fill:#FFBDA9;fill-rule:nonzero}
    .fil7 {fill:white;fill-rule:nonzero}
   ]]>
  </style>
 </defs>
 <g id="Camada_x0020_1">
  <metadata id="CorelCorpID_0Corel-Layer"/>
  <g id="_1561827734000">
   <path class="fil0" d="M1175.81 1359.24c276.63,113.06 376.49,392.05 682.82,394.83 -178.38,-84.17 -198.47,-290.02 -116.94,-796.54l-565.88 401.71z"/>
   <path class="fil1" d="M1744.78 883.71c0,109.8 -20.36,214.89 -57.48,311.65 -5.26,13.75 -10.88,27.3 -16.8,40.68 -5.79,13.04 -11.88,25.86 -18.24,38.54 -14.76,29.36 -31.11,57.7 -48.98,84.99 -7.57,11.58 -15.41,22.97 -23.58,34.21 -24.41,33.71 -51.2,65.61 -80.11,95.45 -13.55,14 -27.61,27.57 -42.07,40.64 -11.29,10.2 -22.87,20.1 -34.71,29.71 -10.3,8.42 -20.85,16.54 -31.54,24.47 -144.56,106.86 -323.32,170.02 -516.86,170.02 -189.02,0 -363.96,-60.25 -506.66,-162.59 -22.7,-16.27 -44.62,-33.64 -65.62,-52.01 -18.33,-15.99 -35.98,-32.76 -52.86,-50.24 -22.21,-22.87 -43.12,-47.03 -62.74,-72.25 -12.39,-15.99 -24.29,-32.44 -35.55,-49.31 -12.51,-18.58 -24.27,-37.69 -35.31,-57.27 -0.26,-0.46 -0.54,-0.97 -0.79,-1.42 -9.91,-17.62 -19.22,-35.63 -27.85,-54 -1.03,-2.06 -1.99,-4.13 -2.95,-6.21 -4.68,-10.14 -9.16,-20.36 -13.5,-30.67 -42.85,-102.95 -66.54,-215.92 -66.54,-334.39 0,-131.7 29.27,-256.6 81.64,-368.51 138.75,-296.49 439.76,-501.86 788.73,-501.86 348.96,0 649.97,205.37 788.73,501.86 52.37,111.91 81.64,236.81 81.64,368.51l0 0zm0 0z"/>
   <path class="fil2" d="M1744.78 883.71c0,109.8 -20.36,214.89 -57.48,311.65 -5.26,13.75 -10.88,27.3 -16.8,40.68 -5.79,13.04 -11.88,25.86 -18.24,38.54 -14.76,29.36 -31.11,57.7 -48.98,84.99 -7.57,11.58 -15.41,22.97 -23.58,34.21 -24.41,33.71 -51.2,65.61 -80.11,95.45 -13.55,14 -27.61,27.57 -42.07,40.64 -11.29,10.2 -22.87,20.1 -34.71,29.71 -10.3,8.42 -20.85,16.54 -31.54,24.47 -144.56,106.86 -323.32,170.02 -516.86,170.02 -189.02,0 -363.96,-60.25 -506.66,-162.59 -22.7,-16.27 -44.62,-33.64 -65.62,-52.01 -18.33,-15.99 -35.98,-32.76 -52.86,-50.24 -22.21,-22.87 -43.12,-47.03 -62.74,-72.25 -12.39,-15.99 -24.29,-32.44 -35.55,-49.31 -12.51,-18.58 -24.27,-37.69 -35.31,-57.27 -0.26,-0.46 -0.54,-0.97 -0.79,-1.42 -9.91,-17.62 -19.22,-35.63 -27.85,-54 -1.03,-2.06 -1.99,-4.13 -2.95,-6.21 -4.68,-10.14 -9.16,-20.36 -13.5,-30.67 -42.85,-102.95 -66.54,-215.92 -66.54,-334.39 0,-131.7 29.27,-256.6 81.64,-368.51l1577.46 0c52.37,111.91 81.64,236.81 81.64,368.51zm0 0z"/>
   <path class="fil3" d="M247.56 644.93c-102.03,0 -184.74,-82.71 -184.74,-184.75l0 -142.75c0,-52.14 42.26,-94.4 94.4,-94.4l180.7 0c52.13,0 94.38,42.26 94.38,94.4l0 142.75c0,102.04 -82.71,184.75 -184.74,184.75zm0 0z"/>
   <path class="fil4" d="M273.98 643.04c-8.63,1.25 -17.43,1.88 -26.41,1.88 -102.04,0 -184.76,-82.7 -184.76,-184.74l0 -161.59 52.87 -75.56 0 237.15c0,93.06 68.81,170.05 158.3,182.86zm0 0z"/>
   <path class="fil5" d="M432.15 277.88c0,-93.02 -75.41,-168.42 -168.43,-168.42l-32.49 0c-93.01,0 -168.41,75.4 -168.41,168.42l0 119.23c28.75,0 52.06,-23.31 52.06,-52.07l0 -67.16 265.36 0 0 67.16c0,28.76 23.31,52.07 52.06,52.07l0 -119.23 -0.15 0zm0 0z"/>
   <path class="fil6" d="M321.77 498.22c0,0.68 0,1.35 -0.04,2.02 -0.2,8.01 -1.7,15.72 -4.28,22.88 -2.8,7.94 -6.93,15.23 -12.11,21.65 -2.28,2.84 -4.79,5.52 -7.46,7.97 -13.23,12.24 -30.91,19.69 -50.32,19.69 -19.41,0 -37.08,-7.45 -50.31,-19.69 -2.67,-2.45 -5.18,-5.12 -7.47,-7.97 -5.17,-6.42 -9.31,-13.71 -12.12,-21.65 -2.56,-7.16 -4.06,-14.87 -4.26,-22.88 -0.04,-0.67 -0.04,-1.34 -0.04,-2.02l148.41 0zm0 0z"/>
   <path class="fil6" d="M167.31 368.24c11.12,0 20.14,9.02 20.14,20.13l0 31.54c0,11.12 -9.02,20.14 -20.14,20.14 -11.11,0 -20.12,-9.02 -20.12,-20.14l0 -31.54c-0.01,-11.11 9.01,-20.13 20.12,-20.13zm0 0z"/>
   <path class="fil6" d="M327.81 368.24c11.12,0 20.12,9.02 20.12,20.13l0 31.54c0,11.12 -9,20.14 -20.12,20.14 -11.11,0 -20.13,-9.02 -20.13,-20.14l0 -31.54c0,-11.11 9,-20.13 20.13,-20.13zm0 0z"/>
   <path class="fil3" d="M671.57 644.93c-102.03,0 -184.75,-82.71 -184.75,-184.75l0 -142.75c0,-52.14 42.26,-94.4 94.4,-94.4l180.7 0c52.13,0 94.4,42.26 94.4,94.4l0 142.75c-0.01,102.04 -82.73,184.75 -184.75,184.75l0 0zm0 0z"/>
   <path class="fil4" d="M698 643.04c-8.63,1.25 -17.45,1.88 -26.43,1.88 -102.04,0 -184.75,-82.7 -184.75,-184.74l0 -161.59 52.86 -75.56 0 237.15c0,93.06 68.81,170.05 158.32,182.86zm0 0z"/>
   <path class="fil7" d="M856.15 277.88c0,-93.02 -75.41,-168.42 -168.43,-168.42l-32.48 0c-93.02,0 -168.42,75.4 -168.42,168.42l0 119.23c28.76,0 52.06,-23.31 52.06,-52.07l0 -67.16 265.37 0 0 67.16c0,28.76 23.3,52.07 52.06,52.07l0 -119.23 -0.16 0zm0 0z"/>
   <path class="fil6" d="M745.77 498.22c0,0.68 0,1.35 -0.04,2.02 -0.2,8.01 -1.7,15.72 -4.26,22.88 -2.82,7.94 -6.95,15.23 -12.13,21.65 -2.28,2.84 -4.79,5.52 -7.46,7.97 -13.23,12.24 -30.91,19.69 -50.31,19.69 -19.41,0 -37.08,-7.45 -50.32,-19.69 -2.67,-2.45 -5.18,-5.12 -7.46,-7.97 -5.18,-6.42 -9.31,-13.71 -12.12,-21.65 -2.57,-7.16 -4.07,-14.87 -4.27,-22.88 -0.04,-0.67 -0.04,-1.34 -0.04,-2.02l148.41 0zm0 0z"/>
   <path class="fil6" d="M591.32 368.24c11.11,0 20.13,9.02 20.13,20.13l0 31.54c0,11.12 -9.02,20.14 -20.13,20.14 -11.12,0 -20.12,-9.02 -20.12,-20.14l0 -31.54c0,-11.11 9,-20.13 20.12,-20.13zm0 0z"/>
   <path class="fil6" d="M751.81 368.24c11.12,0 20.12,9.02 20.12,20.13l0 31.54c0,11.12 -9,20.14 -20.12,20.14 -11.11,0 -20.13,-9.02 -20.13,-20.14l0 -31.54c0,-11.11 9.02,-20.13 20.13,-20.13zm0 0z"/>
   <path class="fil3" d="M1095.57 644.93c-102.03,0 -184.75,-82.71 -184.75,-184.75l0 -142.75c0,-52.14 42.26,-94.4 94.4,-94.4l180.7 0c52.13,0 94.4,42.26 94.4,94.4l0 142.75c0,102.04 -82.71,184.75 -184.75,184.75zm0 0z"/>
   <path class="fil4" d="M1122 643.04c-8.63,1.25 -17.44,1.88 -26.41,1.88 -102.05,0 -184.77,-82.7 -184.77,-184.74l0 -161.59 52.86 -75.56 0 237.15c0,93.06 68.81,170.05 158.32,182.86zm0 0z"/>
   <path class="fil5" d="M1280.15 277.88c0,-93.02 -75.4,-168.42 -168.41,-168.42l-32.49 0c-93.02,0 -168.43,75.4 -168.43,168.42l0 119.23c28.76,0 52.08,-23.31 52.08,-52.07l0 -67.16 265.35 0 0 67.16c0,28.76 23.32,52.07 52.07,52.07l0 -119.23 -0.17 0zm0 0z"/>
   <path class="fil6" d="M1169.77 498.22c0,0.68 0,1.35 -0.04,2.02 -0.2,8.01 -1.7,15.72 -4.26,22.88 -2.82,7.94 -6.95,15.23 -12.13,21.65 -2.28,2.84 -4.78,5.52 -7.46,7.97 -13.23,12.24 -30.9,19.69 -50.31,19.69 -19.41,0 -37.08,-7.45 -50.3,-19.69 -2.69,-2.45 -5.18,-5.12 -7.47,-7.97 -5.18,-6.42 -9.32,-13.71 -12.12,-21.65 -2.58,-7.16 -4.07,-14.87 -4.27,-22.88 -0.05,-0.67 -0.05,-1.34 -0.05,-2.02l148.41 0zm0 0z"/>
   <path class="fil6" d="M1015.33 368.24c11.12,0 20.12,9.02 20.12,20.13l0 31.54c0,11.12 -9,20.14 -20.12,20.14 -11.12,0 -20.13,-9.02 -20.13,-20.14l0 -31.54c0,-11.11 9,-20.13 20.13,-20.13zm0 0z"/>
   <path class="fil6" d="M1175.82 368.24c11.11,0 20.13,9.02 20.13,20.13l0 31.54c0,11.12 -9.02,20.14 -20.13,20.14 -11.12,0 -20.14,-9.02 -20.14,-20.14l0 -31.54c0,-11.11 9.02,-20.13 20.14,-20.13zm0 0z"/>
   <path class="fil3" d="M1519.57 644.93c-102.03,0 -184.74,-82.71 -184.74,-184.75l0 -142.75c0,-52.14 42.27,-94.4 94.4,-94.4l180.69 0c52.14,0 94.4,42.26 94.4,94.4l0 142.75c0,102.04 -82.71,184.75 -184.75,184.75zm0 0z"/>
   <path class="fil4" d="M1546 643.04c-8.63,1.25 -17.43,1.88 -26.41,1.88 -102.04,0 -184.76,-82.7 -184.76,-184.74l0 -161.59 52.87 -75.56 0 237.15c0,93.06 68.79,170.05 158.3,182.86zm0 0z"/>
   <path class="fil8" d="M1704.15 277.88c0,-93.02 -75.39,-168.42 -168.41,-168.42l-32.49 0c-93.02,0 -168.41,75.4 -168.41,168.42l0 119.23c28.75,0 52.06,-23.31 52.06,-52.07l0 -67.16 265.36 0 0 67.16c0,28.76 23.31,52.07 52.06,52.07l0 -119.23 -0.17 0zm0 0z"/>
   <path class="fil6" d="M1593.77 498.22c0,0.68 0,1.35 -0.04,2.02 -0.18,8.01 -1.7,15.72 -4.26,22.88 -2.8,7.94 -6.94,15.23 -12.12,21.65 -2.29,2.84 -4.79,5.52 -7.47,7.97 -13.23,12.24 -30.89,19.69 -50.31,19.69 -19.41,0 -37.08,-7.45 -50.3,-19.69 -2.69,-2.45 -5.18,-5.12 -7.47,-7.97 -5.18,-6.42 -9.32,-13.71 -12.12,-21.65 -2.57,-7.16 -4.07,-14.87 -4.27,-22.88 -0.04,-0.67 -0.04,-1.34 -0.04,-2.02l148.4 0zm0 0z"/>
   <path class="fil6" d="M1439.33 368.24c11.12,0 20.12,9.02 20.12,20.13l0 31.54c0,11.12 -9,20.14 -20.12,20.14 -11.11,0 -20.13,-9.02 -20.13,-20.14l0 -31.54c0,-11.11 9.02,-20.13 20.13,-20.13zm0 0z"/>
   <path class="fil6" d="M1599.82 368.24c11.11,0 20.13,9.02 20.13,20.13l0 31.54c0,11.12 -9.02,20.14 -20.13,20.14 -11.12,0 -20.12,-9.02 -20.12,-20.14l0 -31.54c0,-11.11 9,-20.13 20.12,-20.13zm0 0z"/>
   <path class="fil3" d="M247.56 1135.16c-102.03,0 -184.74,-82.71 -184.74,-184.73l0 -142.77c0,-52.13 42.26,-94.4 94.4,-94.4l180.7 0c52.13,0 94.38,42.27 94.38,94.4l0 142.77c0,102.02 -82.71,184.73 -184.74,184.73zm0 0z"/>
   <path class="fil4" d="M273.98 1133.28c-8.63,1.25 -17.43,1.87 -26.41,1.87 -102.04,0 -184.76,-82.7 -184.76,-184.72l0 -161.6 52.87 -75.57 0 237.17c0,93.06 68.81,170.03 158.3,182.85zm0 0z"/>
   <path class="fil8" d="M432.15 768.11c0,-93.02 -75.41,-168.41 -168.43,-168.41l-32.49 0c-93.01,0 -168.41,75.39 -168.41,168.41l0 119.23c28.75,0 52.06,-23.3 52.06,-52.06l0 -67.17 265.36 0 0 67.17c0,28.76 23.31,52.06 52.06,52.06l0 -119.23 -0.15 0zm0 0z"/>
   <path class="fil6" d="M321.77 988.45c0,0.68 0,1.36 -0.04,2.03 -0.2,8 -1.7,15.71 -4.28,22.87 -2.8,7.94 -6.93,15.23 -12.11,21.65 -2.28,2.86 -4.79,5.52 -7.46,7.97 -13.23,12.24 -30.91,19.69 -50.32,19.69 -19.41,0 -37.08,-7.45 -50.31,-19.69 -2.67,-2.45 -5.18,-5.11 -7.47,-7.97 -5.17,-6.42 -9.31,-13.71 -12.12,-21.65 -2.56,-7.16 -4.06,-14.87 -4.26,-22.87 -0.04,-0.68 -0.04,-1.35 -0.04,-2.03l148.41 0zm0 0z"/>
   <path class="fil6" d="M167.31 858.47c11.12,0 20.14,9.02 20.14,20.14l0 31.54c0,11.11 -9.02,20.13 -20.14,20.13 -11.11,0 -20.12,-9.02 -20.12,-20.13l0 -31.54c-0.01,-11.12 9.01,-20.14 20.12,-20.14zm0 0z"/>
   <path class="fil6" d="M327.81 858.47c11.12,0 20.12,9.02 20.12,20.14l0 31.54c0,11.11 -9,20.13 -20.12,20.13 -11.11,0 -20.13,-9.02 -20.13,-20.13l0 -31.54c0,-11.12 9,-20.14 20.13,-20.14zm0 0z"/>
   <path class="fil3" d="M671.57 1135.16c-102.03,0 -184.75,-82.71 -184.75,-184.73l0 -142.77c0,-52.13 42.26,-94.4 94.4,-94.4l180.7 0c52.13,0 94.4,42.27 94.4,94.4l0 142.77c-0.01,102.02 -82.73,184.73 -184.75,184.73l0 0zm0 0z"/>
   <path class="fil4" d="M698 1133.28c-8.63,1.25 -17.45,1.87 -26.43,1.87 -102.04,0 -184.75,-82.7 -184.75,-184.72l0 -161.6 52.86 -75.57 0 237.17c0,93.06 68.81,170.03 158.32,182.85zm0 0z"/>
   <path class="fil5" d="M856.15 768.11c0,-93.02 -75.41,-168.41 -168.43,-168.41l-32.48 0c-93.02,0 -168.42,75.39 -168.42,168.41l0 119.23c28.76,0 52.06,-23.3 52.06,-52.06l0 -67.17 265.37 0 0 67.17c0,28.76 23.3,52.06 52.06,52.06l0 -119.23 -0.16 0zm0 0z"/>
   <path class="fil6" d="M745.77 988.45c0,0.68 0,1.36 -0.04,2.03 -0.2,8 -1.7,15.71 -4.26,22.87 -2.82,7.94 -6.95,15.23 -12.13,21.65 -2.28,2.86 -4.79,5.52 -7.46,7.97 -13.23,12.24 -30.91,19.69 -50.31,19.69 -19.41,0 -37.08,-7.45 -50.32,-19.69 -2.67,-2.45 -5.18,-5.11 -7.46,-7.97 -5.18,-6.42 -9.31,-13.71 -12.12,-21.65 -2.57,-7.16 -4.07,-14.87 -4.27,-22.87 -0.04,-0.68 -0.04,-1.35 -0.04,-2.03l148.41 0zm0 0z"/>
   <path class="fil6" d="M591.32 858.47c11.11,0 20.13,9.02 20.13,20.14l0 31.54c0,11.11 -9.02,20.13 -20.13,20.13 -11.12,0 -20.12,-9.02 -20.12,-20.13l0 -31.54c0,-11.12 9,-20.14 20.12,-20.14zm0 0z"/>
   <path class="fil6" d="M751.81 858.47c11.12,0 20.12,9.02 20.12,20.14l0 31.54c0,11.11 -9,20.13 -20.12,20.13 -11.11,0 -20.13,-9.02 -20.13,-20.13l0 -31.54c0,-11.12 9.02,-20.14 20.13,-20.14zm0 0z"/>
   <path class="fil3" d="M1095.57 1135.16c-102.03,0 -184.75,-82.71 -184.75,-184.73l0 -142.77c0,-52.13 42.26,-94.4 94.4,-94.4l180.7 0c52.13,0 94.4,42.27 94.4,94.4l0 142.77c0,102.02 -82.71,184.73 -184.75,184.73zm0 0z"/>
   <path class="fil4" d="M1122 1133.28c-8.63,1.25 -17.44,1.87 -26.41,1.87 -102.05,0 -184.77,-82.7 -184.77,-184.72l0 -161.6 52.86 -75.57 0 237.17c0,93.06 68.81,170.03 158.32,182.85zm0 0z"/>
   <path class="fil8" d="M1280.15 768.11c0,-93.02 -75.4,-168.41 -168.41,-168.41l-32.49 0c-93.02,0 -168.43,75.39 -168.43,168.41l0 119.23c28.76,0 52.08,-23.3 52.08,-52.06l0 -67.17 265.35 0 0 67.17c0,28.76 23.32,52.06 52.07,52.06l0 -119.23 -0.17 0zm0 0z"/>
   <path class="fil6" d="M1169.77 988.45c0,0.68 0,1.36 -0.04,2.03 -0.2,8 -1.7,15.71 -4.26,22.87 -2.82,7.94 -6.95,15.23 -12.13,21.65 -2.28,2.86 -4.78,5.52 -7.46,7.97 -13.23,12.24 -30.9,19.69 -50.31,19.69 -19.41,0 -37.08,-7.45 -50.3,-19.69 -2.69,-2.45 -5.18,-5.11 -7.47,-7.97 -5.18,-6.42 -9.32,-13.71 -12.12,-21.65 -2.58,-7.16 -4.07,-14.87 -4.27,-22.87 -0.05,-0.68 -0.05,-1.35 -0.05,-2.03l148.41 0zm0 0z"/>
   <path class="fil6" d="M1015.33 858.47c11.12,0 20.12,9.02 20.12,20.14l0 31.54c0,11.11 -9,20.13 -20.12,20.13 -11.12,0 -20.13,-9.02 -20.13,-20.13l0 -31.54c0,-11.12 9,-20.14 20.13,-20.14zm0 0z"/>
   <path class="fil6" d="M1175.82 858.47c11.11,0 20.13,9.02 20.13,20.14l0 31.54c0,11.11 -9.02,20.13 -20.13,20.13 -11.12,0 -20.14,-9.02 -20.14,-20.13l0 -31.54c0,-11.12 9.02,-20.14 20.14,-20.14zm0 0z"/>
   <path class="fil3" d="M1519.57 1135.16c-102.03,0 -184.74,-82.71 -184.74,-184.73l0 -142.77c0,-52.13 42.27,-94.4 94.4,-94.4l180.69 0c52.14,0 94.4,42.27 94.4,94.4l0 142.77c0,102.02 -82.71,184.73 -184.75,184.73zm0 0z"/>
   <path class="fil4" d="M1546 1133.28c-8.63,1.25 -17.43,1.87 -26.41,1.87 -102.04,0 -184.76,-82.7 -184.76,-184.72l0 -161.6 52.87 -75.57 0 237.17c0,93.06 68.79,170.03 158.3,182.85zm0 0z"/>
   <path class="fil7" d="M1704.15 768.11c0,-93.02 -75.39,-168.41 -168.41,-168.41l-32.49 0c-93.02,0 -168.41,75.39 -168.41,168.41l0 119.23c28.75,0 52.06,-23.3 52.06,-52.06l0 -67.17 265.36 0 0 67.17c0,28.76 23.31,52.06 52.06,52.06l0 -119.23 -0.17 0zm0 0z"/>
   <path class="fil6" d="M1593.77 988.45c0,0.68 0,1.36 -0.04,2.03 -0.18,8 -1.7,15.71 -4.26,22.87 -2.8,7.94 -6.94,15.23 -12.12,21.65 -2.29,2.86 -4.79,5.52 -7.47,7.97 -13.23,12.24 -30.89,19.69 -50.31,19.69 -19.41,0 -37.08,-7.45 -50.3,-19.69 -2.69,-2.45 -5.18,-5.11 -7.47,-7.97 -5.18,-6.42 -9.32,-13.71 -12.12,-21.65 -2.57,-7.16 -4.07,-14.87 -4.27,-22.87 -0.04,-0.68 -0.04,-1.35 -0.04,-2.03l148.4 0zm0 0z"/>
   <path class="fil6" d="M1439.33 858.47c11.12,0 20.12,9.02 20.12,20.14l0 31.54c0,11.11 -9,20.13 -20.12,20.13 -11.11,0 -20.13,-9.02 -20.13,-20.13l0 -31.54c0,-11.12 9.02,-20.14 20.13,-20.14zm0 0z"/>
   <path class="fil6" d="M1599.82 858.47c11.11,0 20.13,9.02 20.13,20.14l0 31.54c0,11.11 -9.02,20.13 -20.13,20.13 -11.12,0 -20.12,-9.02 -20.12,-20.13l0 -31.54c0,-11.12 9,-20.14 20.12,-20.14zm0 0z"/>
   <path class="fil3" d="M432.29 1308.45l0 142.73c0,56.14 -25.03,106.4 -64.54,140.3 -121.79,-87.32 -220.12,-205.34 -283.67,-342.71 17.29,-21.21 43.62,-34.75 73.14,-34.75l180.69 0c52.15,0 94.38,42.28 94.38,94.43l0 0zm0 0z"/>
   <path class="fil4" d="M115.66 1214.02l0 96.38c-10.19,-18.09 -19.76,-36.56 -28.63,-55.42l28.63 -40.96zm0 0z"/>
   <path class="fil5" d="M432.29 1268.87l0 119.25c-28.74,0 -52.03,-23.33 -52.03,-52.07l0 -67.18 -265.38 0 0 40.11c-9.91,-17.62 -19.22,-35.63 -27.85,-54 -1.03,-2.06 -1.99,-4.13 -2.95,-6.21 -4.68,-10.14 -9.16,-20.36 -13.5,-30.67 21.52,-68.21 85.33,-117.65 160.64,-117.65l32.51 0c93.01,0 168.43,75.42 168.43,168.42l0.13 0zm0 0z"/>
   <path class="fil6" d="M321.78 1489.23c0,0.68 0,1.35 -0.08,2.03 -0.17,8 -1.66,15.7 -4.26,22.84 -2.8,7.96 -6.92,15.24 -12.11,21.68 -1.03,1.27 -2.1,2.51 -3.2,3.69 -18.33,-15.99 -35.98,-32.76 -52.86,-50.24l72.51 0zm0 0z"/>
   <path class="fil6" d="M187.46 1379.36l0 31.58c0,2.1 -0.32,4.12 -0.93,6.04 -12.39,-15.99 -24.29,-32.44 -35.55,-49.31 3.61,-5.13 9.59,-8.42 16.33,-8.42 11.12,0 20.15,9.02 20.15,20.11l0 0zm0 0z"/>
   <path class="fil6" d="M327.81 1359.24c11.12,0 20.12,9.01 20.12,20.13l0 31.56c0,11.11 -9,20.13 -20.12,20.13 -11.11,0 -20.13,-9.02 -20.13,-20.13l0 -31.56c0,-11.12 9,-20.13 20.13,-20.13zm0 0z"/>
   <path class="fil3" d="M671.57 1635.93c-102.03,0 -184.75,-82.71 -184.75,-184.74l0 -142.77c0,-52.12 42.26,-94.38 94.4,-94.38l180.7 0c52.13,0 94.4,42.26 94.4,94.38l0 142.77c-0.01,102.03 -82.73,184.74 -184.75,184.74l0 0zm0 0z"/>
   <path class="fil4" d="M698 1634.04c-8.63,1.25 -17.45,1.89 -26.43,1.89 -102.04,0 -184.75,-82.7 -184.75,-184.74l0 -161.6 52.86 -75.55 0 237.15c0,93.06 68.81,170.04 158.32,182.85l0 0zm0 0z"/>
   <path class="fil7" d="M856.15 1268.87c0,-93 -75.41,-168.41 -168.43,-168.41l-32.48 0c-93.02,0 -168.42,75.41 -168.42,168.41l0 119.24c28.76,0 52.06,-23.31 52.06,-52.06l0 -67.18 265.37 0 0 67.18c0,28.75 23.3,52.06 52.06,52.06l0 -119.24 -0.16 0zm0 0z"/>
   <path class="fil6" d="M745.77 1489.22c0,0.67 0,1.35 -0.04,2.03 -0.2,8.01 -1.7,15.71 -4.26,22.87 -2.82,7.94 -6.95,15.23 -12.13,21.64 -2.28,2.86 -4.79,5.53 -7.46,7.97 -13.23,12.26 -30.91,19.7 -50.31,19.7 -19.41,0 -37.08,-7.44 -50.32,-19.7 -2.67,-2.44 -5.18,-5.11 -7.46,-7.97 -5.18,-6.41 -9.31,-13.7 -12.12,-21.64 -2.57,-7.16 -4.07,-14.86 -4.27,-22.87 -0.04,-0.68 -0.04,-1.36 -0.04,-2.03l148.41 0zm0 0z"/>
   <path class="fil6" d="M591.32 1359.24c11.11,0 20.13,9.01 20.13,20.13l0 31.56c0,11.11 -9.02,20.13 -20.13,20.13 -11.12,0 -20.12,-9.02 -20.12,-20.13l0 -31.56c0,-11.12 9,-20.13 20.12,-20.13zm0 0z"/>
   <path class="fil6" d="M751.81 1359.24c11.12,0 20.12,9.01 20.12,20.13l0 31.56c0,11.11 -9,20.13 -20.12,20.13 -11.11,0 -20.13,-9.02 -20.13,-20.13l0 -31.56c0,-11.12 9.02,-20.13 20.13,-20.13zm0 0z"/>
   <path class="fil3" d="M1095.57 1635.93c-102.03,0 -184.75,-82.71 -184.75,-184.74l0 -142.77c0,-52.12 42.26,-94.38 94.4,-94.38l180.7 0c52.13,0 94.4,42.26 94.4,94.38l0 142.77c0,102.03 -82.71,184.74 -184.75,184.74zm0 0z"/>
   <path class="fil4" d="M1122 1634.04c-8.63,1.25 -17.44,1.89 -26.41,1.89 -102.05,0 -184.77,-82.7 -184.77,-184.74l0 -161.6 52.86 -75.55 0 237.15c0,93.06 68.81,170.04 158.32,182.85l0 0zm0 0z"/>
   <path class="fil8" d="M1280.15 1268.87c0,-93 -75.4,-168.41 -168.41,-168.41l-32.49 0c-93.02,0 -168.43,75.41 -168.43,168.41l0 119.24c28.76,0 52.08,-23.31 52.08,-52.06l0 -67.18 265.35 0 0 67.18c0,28.75 23.32,52.06 52.07,52.06l0 -119.24 -0.17 0zm0 0z"/>
   <path class="fil6" d="M1169.77 1489.22c0,0.67 0,1.35 -0.04,2.03 -0.2,8.01 -1.7,15.71 -4.26,22.87 -2.82,7.94 -6.95,15.23 -12.13,21.64 -2.28,2.86 -4.78,5.53 -7.46,7.97 -13.23,12.26 -30.9,19.7 -50.31,19.7 -19.41,0 -37.08,-7.44 -50.3,-19.7 -2.69,-2.44 -5.18,-5.11 -7.47,-7.97 -5.18,-6.41 -9.32,-13.7 -12.12,-21.64 -2.58,-7.16 -4.07,-14.86 -4.27,-22.87 -0.05,-0.68 -0.05,-1.36 -0.05,-2.03l148.41 0zm0 0z"/>
   <path class="fil6" d="M1015.33 1359.24c11.12,0 20.12,9.01 20.12,20.13l0 31.56c0,11.11 -9,20.13 -20.12,20.13 -11.12,0 -20.13,-9.02 -20.13,-20.13l0 -31.56c0,-11.12 9,-20.13 20.13,-20.13zm0 0z"/>
   <path class="fil6" d="M1175.82 1359.24c11.11,0 20.13,9.01 20.13,20.13l0 31.56c0,11.11 -9.02,20.13 -20.13,20.13 -11.12,0 -20.14,-9.02 -20.14,-20.13l0 -31.56c0,-11.12 9.02,-20.13 20.14,-20.13zm0 0z"/>
   <path class="fil3" d="M1521.63 1635.93c-102.03,0 -184.74,-82.71 -184.74,-184.74l0 -142.77c0,-52.12 42.25,-94.38 94.39,-94.38l180.7 0c52.13,0 94.4,42.26 94.4,94.38l0 142.77c0,102.03 -82.71,184.74 -184.75,184.74zm0 0z"/>
   <path class="fil4" d="M1548.06 1634.04c-8.63,1.25 -17.44,1.89 -26.41,1.89 -102.05,0 -184.76,-82.7 -184.76,-184.74l0 -161.6 52.85 -75.55 0 237.15c0,93.06 68.81,170.04 158.32,182.85l0 0zm0 0z"/>
   <path class="fil5" d="M1706.21 1268.87c0,-93 -75.39,-168.41 -168.41,-168.41l-32.49 0c-93.02,0 -168.42,75.41 -168.42,168.41l0 119.24c28.75,0 52.07,-23.31 52.07,-52.06l0 -67.18 265.35 0 0 67.18c0,28.75 23.32,52.06 52.07,52.06l0 -119.24 -0.17 0zm0 0z"/>
   <path class="fil6" d="M1595.83 1489.22c0,0.67 0,1.35 -0.04,2.03 -0.2,8.01 -1.7,15.71 -4.26,22.87 -2.81,7.94 -6.95,15.23 -12.12,21.64 -2.29,2.86 -4.79,5.53 -7.47,7.97 -13.23,12.26 -30.9,19.7 -50.31,19.7 -19.41,0 -37.08,-7.44 -50.3,-19.7 -2.69,-2.44 -5.18,-5.11 -7.47,-7.97 -5.18,-6.41 -9.32,-13.7 -12.12,-21.64 -2.58,-7.16 -4.07,-14.86 -4.27,-22.87 -0.05,-0.68 -0.05,-1.36 -0.05,-2.03l148.41 0zm0 0z"/>
   <path class="fil6" d="M1441.39 1359.24c11.12,0 20.12,9.01 20.12,20.13l0 31.56c0,11.11 -9,20.13 -20.12,20.13 -11.11,0 -20.13,-9.02 -20.13,-20.13l0 -31.56c0,-11.12 9,-20.13 20.13,-20.13zm0 0z"/>
   <path class="fil6" d="M1601.88 1359.24c11.11,0 20.13,9.01 20.13,20.13l0 31.56c0,11.11 -9.02,20.13 -20.13,20.13 -11.12,0 -20.14,-9.02 -20.14,-20.13l0 -31.56c0,-11.12 9.02,-20.13 20.14,-20.13zm0 0z"/>
  </g>
 </g>
</svg>
