<?xml version="1.0" encoding="UTF-8"?>
<!DOCTYPE svg PUBLIC "-//W3C//DTD SVG 1.1//EN" "http://www.w3.org/Graphics/SVG/1.1/DTD/svg11.dtd">
<!-- Creator: CorelDRAW 2020 (64 Bit) -->
<svg xmlns="http://www.w3.org/2000/svg" xml:space="preserve" width="21.6746mm" height="20.9972mm" version="1.1" style="shape-rendering:geometricPrecision; text-rendering:geometricPrecision; image-rendering:optimizeQuality; fill-rule:evenodd; clip-rule:evenodd"
viewBox="0 0 2167.46 2099.72"
 xmlns:xlink="http://www.w3.org/1999/xlink"
 xmlns:xodm="http://www.corel.com/coreldraw/odm/2003"
 xmlns:svgjs="http://svgjs.com/svgjs">
 <defs>
  <style type="text/css">
   <![CDATA[
    .fil5 {fill:black;fill-rule:nonzero}
    .fil4 {fill:#353CBF;fill-rule:nonzero}
    .fil3 {fill:#4049E3;fill-rule:nonzero}
    .fil1 {fill:#CFD8DC;fill-rule:nonzero}
    .fil0 {fill:whitesmoke;fill-rule:nonzero}
    .fil2 {fill:white;fill-rule:nonzero}
    .fil6 {fill:white;fill-rule:nonzero}
   ]]>
  </style>
 </defs>
 <g id="Camada_x0020_1">
  <metadata id="CorelCorpID_0Corel-Layer"/>
  <path id="Shape" class="fil0" d="M2129.47 1273.05c0,590.05 -468.21,786.76 -1045.74,786.76 -577.54,0 -1045.74,-196.71 -1045.74,-786.76 0,-550.74 468.2,-944.12 1045.74,-944.12 577.53,0 1045.74,393.38 1045.74,944.12z" data-original="#f5f5f5"/>
  <path id="Shape_0" class="fil1" d="M1083.73 328.93c-18.15,0 -36.18,0.38 -54.1,1.15 552.41,23.73 991.65,409.54 991.65,942.97 0,571.52 -439.24,773.99 -991.65,786.11 17.94,0.43 35.97,0.65 54.1,0.65 577.53,0 1045.74,-196.71 1045.74,-786.76 0,-550.74 -468.21,-944.12 -1045.74,-944.12z" data-original="#cfd8dc"/>
  <circle id="Oval" class="fil2" cx="398.59" cy="148.63" r="108.18" data-original="#02a9f4"/>
  <circle id="Oval_1" class="fil2" cx="1768.87" cy="148.63" r="108.18" data-original="#02a9f4"/>
  <path id="Shape_2" class="fil3" d="M1588.57 761.65l-1009.68 0c-119.5,0 -216.37,96.87 -216.37,216.36l0 432.72c0,119.49 96.87,216.36 216.37,216.36 39.83,0 72.12,32.29 72.12,72.12l0 144.24 269.26 -201.94c12.48,-9.36 27.66,-14.42 43.27,-14.42l625.03 0c119.49,0 216.36,-96.87 216.36,-216.36l0 -432.72c0,-119.49 -96.87,-216.36 -216.36,-216.36l0 0z" data-original="#ffdf00"/>
  <path id="Shape_3" class="fil4" d="M1588.57 761.65l-108.18 0c119.49,0 216.36,96.87 216.36,216.36l0 432.72c0,119.49 -96.87,216.36 -216.36,216.36l108.18 0c119.49,0 216.36,-96.87 216.36,-216.36l0 -432.72c0,-119.49 -96.87,-216.36 -216.36,-216.36l0 0z" data-original="#fec108"/>
  <path id="Shape_4" class="fil5" d="M1804.93 530.61l0 -242.86c70.32,-18.16 116.18,-85.78 107.03,-157.83 -9.16,-72.06 -70.46,-126.07 -143.09,-126.07 -72.64,0 -133.94,54.01 -143.09,126.07 -9.15,72.05 36.7,139.67 107.03,157.83l0 190.61c-193.55,-124.01 -419.23,-188.51 -649.08,-185.49 -229.85,-3.02 -455.53,61.48 -649.08,185.49l0 -190.61c70.33,-18.16 116.18,-85.78 107.03,-157.83 -9.15,-72.06 -70.46,-126.07 -143.09,-126.07 -72.63,0 -133.94,54.01 -143.09,126.07 -9.15,72.05 36.7,139.67 107.03,157.83l0 242.86c-228.97,178.06 -362.21,452.4 -360.6,742.44 0,538.27 374.09,822.82 1081.8,822.82 707.71,0 1081.8,-284.55 1081.8,-822.82 1.61,-290.04 -131.63,-564.38 -360.6,-742.44l0 0zm-108.19 -381.98c0,-39.83 32.29,-72.12 72.13,-72.12 39.83,0 72.12,32.29 72.12,72.12 0,39.83 -32.29,72.12 -72.12,72.12 -39.84,0 -72.13,-32.29 -72.13,-72.12zm-1370.27 0c0,-39.83 32.29,-72.12 72.12,-72.12 39.83,0 72.12,32.29 72.12,72.12 0,39.83 -32.29,72.12 -72.12,72.12 -39.83,0 -72.12,-32.29 -72.12,-72.12zm757.26 1875.12c-460.6,0 -1009.68,-130.25 -1009.68,-750.7 0,-517.67 434.08,-908.06 1009.68,-908.06 575.59,0 1009.67,390.39 1009.67,908.06 0,620.45 -549.08,750.7 -1009.67,750.7z" data-original="#000000"/>
  <path id="Shape_5" class="fil5" d="M1588.57 725.59l-1009.68 0c-139.35,0.16 -252.27,113.08 -252.42,252.42l0 432.72c0.16,139.34 113.07,252.26 252.42,252.42 19.91,0 36.06,16.14 36.06,36.06l0 144.24c0,13.66 7.71,26.14 19.93,32.25 12.22,6.11 26.83,4.79 37.76,-3.4l269.26 -201.94c6.25,-4.67 13.84,-7.2 21.64,-7.21l625.03 0c139.34,-0.16 252.26,-113.08 252.41,-252.42l0 -432.72c-0.16,-139.34 -113.07,-252.26 -252.41,-252.42l0 0zm180.3 685.14c-0.12,99.53 -80.78,180.18 -180.3,180.3l-625.03 0c-23.4,0.04 -46.17,7.62 -64.91,21.64l-211.57 158.66 0 -72.12c0,-59.75 -48.43,-108.18 -108.17,-108.18 -99.53,-0.12 -180.18,-80.77 -180.3,-180.3l0 -432.72c0.12,-99.53 80.77,-180.18 180.3,-180.3l1009.68 0c99.52,0.12 180.18,80.77 180.3,180.3l0 432.72z" data-original="#000000"/>
  <path id="Shape_6" class="fil6" d="M1624.63 978.01l-1081.81 0c-19.91,0 -36.06,16.14 -36.06,36.06 0,19.92 16.15,36.06 36.06,36.06l1081.81 0c19.91,0 36.06,-16.14 36.06,-36.06 0,-19.92 -16.15,-36.06 -36.06,-36.06z" data-original="#000000"/>
  <path id="Shape_7" class="fil6" d="M542.82 1230.43l360.61 0c19.91,0 36.06,-16.14 36.06,-36.06 0,-19.92 -16.15,-36.06 -36.06,-36.06l-360.61 0c-19.91,0 -36.06,16.14 -36.06,36.06 0,19.92 16.15,36.06 36.06,36.06z" data-original="#000000"/>
  <path id="Shape_8" class="fil6" d="M1444.33 1338.61l-901.51 0c-19.91,0 -36.06,16.14 -36.06,36.06 0,19.92 16.15,36.06 36.06,36.06l901.51 0c19.91,0 36.06,-16.14 36.06,-36.06 0,-19.92 -16.15,-36.06 -36.06,-36.06z" data-original="#000000"/>
 </g>
</svg>
