<?xml version="1.0" encoding="UTF-8"?>
<!DOCTYPE svg PUBLIC "-//W3C//DTD SVG 1.1//EN" "http://www.w3.org/Graphics/SVG/1.1/DTD/svg11.dtd">
<!-- Creator: CorelDRAW 2020 (64 Bit) -->
<svg xmlns="http://www.w3.org/2000/svg" xml:space="preserve" width="18.7112mm" height="18.9864mm" version="1.1" style="shape-rendering:geometricPrecision; text-rendering:geometricPrecision; image-rendering:optimizeQuality; fill-rule:evenodd; clip-rule:evenodd"
viewBox="0 0 1871.12 1898.64"
 xmlns:xlink="http://www.w3.org/1999/xlink"
 xmlns:xodm="http://www.corel.com/coreldraw/odm/2003">
 <defs>
  <style type="text/css">
   <![CDATA[
    .fil5 {fill:black;fill-rule:nonzero}
    .fil3 {fill:#353CBF;fill-rule:nonzero}
    .fil2 {fill:#4049E3;fill-rule:nonzero}
    .fil8 {fill:#6D4122;fill-rule:nonzero}
    .fil7 {fill:#91562D;fill-rule:nonzero}
    .fil11 {fill:#C32E2C;fill-rule:nonzero}
    .fil1 {fill:#CFD8DC;fill-rule:nonzero}
    .fil6 {fill:#DFC49C;fill-rule:nonzero}
    .fil10 {fill:#E33B39;fill-rule:nonzero}
    .fil0 {fill:whitesmoke;fill-rule:nonzero}
    .fil9 {fill:#FFE0B2;fill-rule:nonzero}
    .fil4 {fill:white;fill-rule:nonzero}
   ]]>
  </style>
 </defs>
 <g id="Camada_x0020_1">
  <metadata id="CorelCorpID_0Corel-Layer"/>
  <g id="_1599634815872">
   <path id="Shape" class="fil0" d="M1377.88 495.35c1.3,58.12 -9.04,115.89 -30.41,169.95 -33.27,17.94 -54.7,52.02 -56.48,89.79 -15.17,16.96 -32.26,32.11 -50.93,45.14 -79.91,56.48 -188.77,79.17 -308.74,79.17 -246.45,0 -446.57,-96.07 -446.57,-384.05 0,-268.89 200.12,-460.81 446.57,-460.81 246.46,0 446.56,191.92 446.56,460.81z"/>
   <path id="Shape_0" class="fil1" d="M931.32 34.54c-12.2,0 -24.13,0.82 -36.2,1.77 229.5,17.82 410.34,203.49 410.34,459.04 1.31,58.12 -9.03,115.89 -30.41,169.95 -33.26,17.94 -54.71,52.02 -56.48,89.79 -15.17,16.96 -32.25,32.11 -50.92,45.14 -71.65,50.68 -166.56,73.96 -271.97,78.28 11.77,0.47 23.61,0.89 35.64,0.89 119.97,0 228.83,-22.69 308.74,-79.17 18.67,-13.03 35.76,-28.18 50.93,-45.14 1.78,-37.77 23.21,-71.85 56.48,-89.79 21.37,-54.06 31.71,-111.83 30.41,-169.95 0,-268.89 -200.1,-460.81 -446.56,-460.81l0 0z"/>
   <path class="fil2" d="M798.56 324.21l265.53 0c119.95,0 217.24,97.29 217.24,217.26l0 0c0,119.95 -97.29,217.24 -217.24,217.24l-265.53 0c-119.95,0 -217.24,-97.29 -217.24,-217.24l0 0c0,-119.97 97.29,-217.26 217.25,-217.26l-0.01 0z"/>
   <path id="Shape_1" class="fil3" d="M1064.09 324.21l-72.43 0c119.99,0 217.26,97.27 217.26,217.26 0,119.97 -97.27,217.24 -217.26,217.24l72.43 0c119.97,0 217.24,-97.27 217.24,-217.24 0,-119.99 -97.27,-217.26 -217.24,-217.26z"/>
   <circle id="Oval" class="fil4" cx="533.03" cy="82.82" r="48.28"/>
   <circle id="Oval_2" class="fil4" cx="750.29" cy="517.32" r="48.28"/>
   <circle id="Oval_3" class="fil4" cx="1112.36" cy="517.32" r="48.28"/>
   <circle id="Oval_4" class="fil4" cx="1329.61" cy="82.82" r="48.28"/>
   <g>
    <path id="Shape_5" class="fil5" d="M750.29 444.91c-40.01,0 -72.41,32.42 -72.41,72.41 0,39.99 32.4,72.41 72.41,72.41 39.99,0 72.42,-32.42 72.42,-72.41 0,-39.99 -32.43,-72.41 -72.42,-72.41zm0 96.56c-13.34,0 -24.15,-10.81 -24.15,-24.15 0,-13.32 10.81,-24.13 24.15,-24.13 13.33,0 24.13,10.81 24.13,24.13 0,13.34 -10.8,24.15 -24.13,24.15z"/>
    <path id="Shape_6" class="fil5" d="M1112.36 444.91c-39.99,0 -72.42,32.42 -72.42,72.41 0,39.99 32.43,72.41 72.42,72.41 40.01,0 72.41,-32.42 72.41,-72.41 0,-39.99 -32.4,-72.41 -72.41,-72.41zm0 96.56c-13.33,0 -24.13,-10.81 -24.13,-24.15 0,-13.32 10.8,-24.13 24.13,-24.13 13.34,0 24.15,10.81 24.15,24.13 0,13.34 -10.81,24.15 -24.15,24.15z"/>
    <path id="Shape_7" class="fil5" d="M1305.46 541.47c-0.13,-133.25 -108.11,-241.24 -241.37,-241.39l-265.53 0c-133.31,0 -241.38,108.06 -241.38,241.39 0,133.31 108.07,241.37 241.38,241.37l265.53 0c133.26,-0.13 241.24,-108.13 241.37,-241.37zm-241.37 193.11l-265.53 0c-106.65,0 -193.11,-86.46 -193.11,-193.11 0,-106.66 86.46,-193.13 193.11,-193.13l265.53 0c106.65,0 193.11,86.47 193.11,193.13 0,106.65 -86.46,193.11 -193.11,193.11z"/>
    <path id="Shape_8" class="fil5" d="M973.4 598.12c-24.11,20.98 -60.02,20.98 -84.13,0 -8.71,-9.82 -23.65,-10.88 -33.66,-2.42 -10,8.48 -11.42,23.4 -3.16,33.59 20.36,21.77 49.08,33.73 78.87,32.86 29.78,0.89 58.52,-11.05 78.88,-32.8 8.39,-10.1 7.08,-25.04 -2.88,-33.56 -10.07,-8.57 -25.12,-7.55 -33.92,2.33l0 0z"/>
    <path id="Shape_9" class="fil5" d="M895.12 275.93l96.54 0c13.34,0 24.15,-10.81 24.15,-24.13 0,-13.34 -10.81,-24.15 -24.15,-24.15l-96.54 0.02c-13.33,0 -24.13,10.79 -24.13,24.13 0,13.32 10.79,24.13 24.13,24.13l0 0z"/>
    <path id="Shape_10" class="fil5" d="M919.25 203.52l48.28 0c13.32,0 24.13,-10.81 24.13,-24.13 0,-13.34 -10.79,-24.15 -24.13,-24.15l-48.28 0c-13.32,0 -24.13,10.81 -24.13,24.15 0,13.32 10.81,24.13 24.13,24.13z"/>
    <path id="Shape_11" class="fil5" d="M1394.61 586.06c5,-29.96 7.47,-60.32 7.42,-90.71 0.35,-75.95 -16.14,-151.05 -48.28,-219.87l0 -124.68c33.26,-11.76 53.2,-45.76 47.23,-80.52 -5.96,-34.75 -36.11,-60.17 -71.37,-60.17 -35.27,0 -65.4,25.42 -71.36,60.17 -5.99,34.76 13.97,68.76 47.21,80.52l0 43.98c-88.02,-117.77 -227.11,-186.31 -374.14,-184.37 -147.02,-1.94 -286.11,66.6 -374.14,184.37l0 -43.98c33.25,-11.76 53.19,-45.76 47.22,-80.52 -5.96,-34.75 -36.09,-60.17 -71.37,-60.17 -35.27,0 -65.4,25.42 -71.36,60.17 -5.97,34.76 13.97,68.76 47.23,80.52l0 124.68c-32.14,68.82 -48.63,143.92 -48.28,219.87 0,263.21 167.15,408.19 470.7,408.19 135.64,0 244.19,-28.12 322.64,-83.6 6.24,-4.41 11.87,-9.26 17.68,-13.97 55.72,-56.37 97.44,-128.82 122.97,-219.91zm-65 -527.37c13.33,0 24.14,10.81 24.14,24.13 0,13.35 -10.81,24.15 -24.14,24.15 -13.34,0 -24.15,-10.8 -24.15,-24.15 0,-13.32 10.81,-24.13 24.15,-24.13zm-796.58 0c13.35,0 24.15,10.81 24.15,24.13 0,13.35 -10.8,24.15 -24.15,24.15 -13.32,0 -24.13,-10.8 -24.13,-24.15 0,-13.32 10.81,-24.13 24.13,-24.13zm693.09 721.75c-70.16,49.68 -169.27,74.83 -294.8,74.83 -280.29,0 -422.42,-121.1 -422.42,-359.92 0,-248.94 181.59,-436.66 422.42,-436.66 240.83,0 422.43,187.72 422.43,436.66 1,52.7 -7.96,105.12 -26.39,154.5 -16.16,37.73 -35.46,69.78 -59.16,93.93 -12.73,13.63 -26.84,25.91 -42.08,36.66z"/>
   </g>
   <path id="Shape_12" class="fil4" d="M188.24 1008.34l110.75 -167.94c2.51,-3.82 2.64,-8.74 0.37,-12.69 -2.29,-3.97 -6.61,-6.28 -11.18,-6l-35.89 2.16c-6.8,0.34 -12.6,-4.9 -12.93,-11.72 -9.11,-231.19 126.21,-309.51 126.21,-309.51 -276.16,16.73 -275.36,261.1 -271.28,318.72 0.39,6.65 -4.68,12.37 -11.33,12.78l-35.72 2.16c-4.57,0.28 -8.59,3.12 -10.38,7.31 -1.79,4.21 -1.06,9.07 1.9,12.56l130.22 153.34c2.46,2.89 6.13,4.45 9.91,4.23 3.8,-0.22 7.27,-2.24 9.35,-5.4l0 0z"/>
   <path id="Shape_13" class="fil5" d="M180.36 1037.83c11.39,-0.65 21.79,-6.67 28.03,-16.21l110.74 -167.97c7.53,-11.44 7.96,-26.16 1.1,-38.03 -6.86,-11.85 -19.83,-18.84 -33.52,-18.02l-23.59 1.43c-3.49,-202.92 109.72,-272.65 114.54,-275.35 9.86,-5.54 14.56,-17.17 11.29,-27.99 -3.24,-10.83 -13.56,-17.97 -24.84,-17.15 -95.55,5.8 -169.79,38.13 -220.64,96.12 -69.81,79.59 -75.9,184.18 -73.96,236.11l-23.74 1.44c-13.68,0.84 -25.74,9.32 -31.12,21.93 -5.37,12.62 -3.17,27.19 5.72,37.64l130.2 153.34c7.34,8.73 18.41,13.44 29.79,12.71l0 0zm-107.57 -178.89l11.64 -0.7c9.6,-0.54 18.58,-4.91 24.95,-12.1 6.38,-7.19 9.62,-16.64 8.99,-26.24l-0.02 -0.39c-1.87,-30.76 -4.23,-138.26 61.42,-213.12 29.98,-33.22 69.13,-56.81 112.51,-67.77 -39.49,50.13 -82.44,136.92 -77.02,274.3 0.58,9.72 4.85,18.87 11.93,25.56 7.23,6.6 16.79,10.01 26.57,9.49l11.78 -0.71 -88.59 134.35 -104.16 -122.67z"/>
   <path id="Shape_14" class="fil2" d="M434.89 1665.1l50.48 0c51.35,-1.04 100.72,19.92 135.62,57.62 28.34,32.52 43.57,74.42 42.69,117.56 -0.06,23.2 -18.86,41.99 -42.06,42.06l-546.75 0c-23.2,-0.07 -41.98,-18.86 -42.06,-42.06 -0.87,-43.14 14.35,-85.04 42.7,-117.56 34.9,-37.7 84.26,-58.66 135.64,-57.62l223.74 0z"/>
   <path id="Shape_15" class="fil3" d="M620.99 1722.72c-34.9,-37.7 -84.27,-58.66 -135.62,-57.62l-63.1 0c51.38,-1.04 100.74,19.92 135.64,57.62 28.34,32.52 43.57,74.42 42.69,117.56 -0.07,23.2 -18.86,41.99 -42.05,42.06l63.07 0c23.2,-0.07 41.99,-18.86 42.06,-42.06 0.88,-43.14 -14.35,-85.04 -42.69,-117.56z"/>
   <path id="Shape_16" class="fil1" d="M474.43 1665.1l0 53.43c0.22,15.28 -6.43,29.85 -18.13,39.67 -11.7,9.84 -27.21,13.88 -42.23,10.99l-65.81 -13.45 -65.82 13.45c-15.02,2.89 -30.52,-1.15 -42.23,-10.99 -11.72,-9.82 -18.37,-24.39 -18.13,-39.67l0 -53.43 252.35 0z"/>
   <path id="Shape_17" class="fil6" d="M147.02 1412.74l33.01 0 0 105.15 -33.01 0c-28.23,0 -51.11,-22.88 -51.11,-51.11l0 -2.93c0,-13.55 5.39,-26.55 14.96,-36.13 9.6,-9.6 22.59,-14.98 36.15,-14.98z"/>
   <path id="Shape_18" class="fil6" d="M516.49 1412.74l32.98 0c13.57,0 26.57,5.38 36.15,14.98 9.6,9.58 14.98,22.58 14.98,36.13l0 2.93c0,28.23 -22.9,51.13 -51.13,51.13l-32.98 0 0 -105.15 0 -0.02z"/>
   <path id="Shape_19" class="fil7" d="M516.49 1412.76l0 -21.25c-4.98,-10.08 -12.71,-18.54 -22.29,-24.39 -128.5,16.62 -128.5,-16.6 -225.01,-49.83 -55.53,-18.93 -79.08,22.29 -88.96,60.56 -0.2,2.11 -0.2,4.42 -0.2,6.53l0 28.38c-12.41,-26.91 -36.6,-76.13 -33.66,-122.39 1.55,-32.89 20.22,-62.58 49.22,-78.23 2.94,-1.68 5.88,-3.36 9.24,-5.05 0,0 74.67,-135.01 252.34,-58.25 2.99,1.25 4.94,4.12 5.04,7.34 0.09,3.2 -1.72,6.19 -4.61,7.6 -8.7,3.79 -16.19,9.9 -21.65,17.67 -1.55,2.05 -2.01,4.71 -1.27,7.15 0.75,2.46 2.63,4.4 5.05,5.24 30.28,9.89 118.82,46.06 118.82,126.4 0,47.94 -34.29,76.32 -42.06,92.52l0 0z"/>
   <path id="Shape_20" class="fil8" d="M558.55 1320.24c0,-80.34 -88.54,-116.51 -118.82,-126.4 -2.42,-0.84 -4.3,-2.78 -5.05,-5.24 -0.74,-2.44 -0.28,-5.1 1.27,-7.15 5.46,-7.77 12.95,-13.88 21.65,-17.67 2.89,-1.41 4.7,-4.4 4.61,-7.6 -0.1,-3.22 -2.05,-6.09 -5.04,-7.34 -41.64,-19.96 -88.25,-27.28 -134.03,-21.02 24.46,3.93 48.3,10.99 70.96,21.02 2.96,1.25 4.92,4.12 5.01,7.34 0.09,3.2 -1.7,6.19 -4.6,7.6 -8.71,3.79 -16.2,9.9 -21.66,17.67 -1.54,2.05 -2.01,4.71 -1.24,7.15 0.74,2.46 2.6,4.4 5.03,5.24 30.28,9.89 118.81,46.06 118.81,126.4 -0.11,16.82 -4.38,33.37 -12.43,48.15 3.73,-0.43 7.21,-0.77 11.18,-1.27 9.58,5.85 17.31,14.31 22.29,24.39l0 21.25c7.77,-16.2 42.06,-44.58 42.06,-92.52z"/>
   <path id="Shape_21" class="fil9" d="M516.49 1391.51l0 133.76c-0.04,88.83 -72.04,160.83 -160.87,160.87l-14.72 0c-88.83,-0.04 -160.84,-72.04 -160.87,-160.87l0 -140.89c0,-2.11 0,-4.42 0.2,-6.53 9.88,-38.27 33.43,-79.49 88.96,-60.56 96.51,33.23 96.51,66.45 225.01,49.83 9.58,5.85 17.31,14.31 22.29,24.39z"/>
   <path id="Shape_22" class="fil6" d="M494.2 1367.12c-18.88,2.61 -37.88,4.04 -56.93,4.34 6.67,5.52 12.15,12.36 16.12,20.05l0 133.76c0.11,79.49 -58.04,147.08 -136.68,158.82 7.99,1.32 16.08,2.01 24.19,2.11l14.72 0c88.85,-0.04 160.87,-72.08 160.87,-160.93l0 -133.76c-4.98,-10.08 -12.71,-18.54 -22.29,-24.39z"/>
   <path id="Shape_23" class="fil5" d="M492.69 1644.44c25.75,-29.46 41.22,-66.49 44.03,-105.51l12.75 0c39.84,-0.04 72.12,-32.31 72.15,-72.15l0 -2.93c-0.07,-37.04 -28.28,-68 -65.18,-71.48 14.7,-21.24 22.75,-46.38 23.12,-72.21 0,-78.93 -69.76,-120.38 -111.61,-138.12 9.83,-5.31 15.78,-15.8 15.26,-26.96 -0.53,-11.18 -7.4,-21.07 -17.71,-25.45 -109.73,-47.41 -184.49,-19.55 -228.84,13.49 -75.68,72.13 -118.76,99 -107.13,191.58 4.19,19.54 10.25,38.63 18.09,57l-0.6 0c-39.82,0.06 -72.09,32.33 -72.15,72.15l0 2.93c0.06,39.82 32.33,72.09 72.15,72.13l12.75 0c2.81,39.02 18.28,76.07 44.05,105.53 -54.69,0.76 -106.68,23.92 -143.84,64.1 -31.95,36.35 -49.13,83.35 -48.18,131.74 0,34.83 28.23,63.08 63.07,63.08l546.75 0c34.85,0 63.1,-28.25 63.1,-63.08 0.95,-48.37 -16.23,-95.35 -48.17,-131.69 -37.14,-40.19 -89.13,-63.37 -143.86,-64.15l0 0zm-249.59 41.7l13.03 0c22.02,11.67 46.23,18.63 71.09,20.46l0 31.98 -49.08 10.06c-8.37,1.77 -17.07,-0.41 -23.63,-5.89 -7.27,-5.94 -11.46,-14.85 -11.41,-24.22l0 -32.39zm126.18 20.46c24.85,-1.83 49.06,-8.79 71.09,-20.46l13.02 0 0 32.39c0.08,9.37 -4.12,18.28 -11.38,24.22 -6.6,5.5 -15.34,7.66 -23.73,5.87l-49 -10.04 0 -31.98zm210.28 -242.75l0 2.93c-0.01,16.62 -13.47,30.07 -30.09,30.09l-11.96 0 0 -63.08 11.96 0c16.6,0.02 30.06,13.48 30.09,30.06l0 0zm-152.74 -304.15c-2.72,2.69 -5.22,5.61 -7.45,8.72 -5.76,7.47 -7.57,17.28 -4.81,26.31 2.74,9.02 9.69,16.18 18.65,19.16 24.39,7.96 104.3,39.15 104.3,106.27 -0.21,16.03 -4.96,31.64 -13.66,45.08 -5.63,-6.75 -12.39,-12.45 -19.98,-16.83 -3.84,-1.9 -8.14,-2.63 -12.37,-2.1 -84.32,10.95 -106.59,0 -147.08,-19.76 -22.14,-11.21 -45.02,-20.94 -68.46,-29.12 -21.96,-8.85 -46.66,-7.87 -67.83,2.74 -15.06,8.85 -27.13,21.99 -34.7,37.75 -12.62,-46.27 -7.88,-87.56 40.85,-112.05 3.74,-1.9 6.83,-4.86 8.9,-8.51 2.59,-4.64 62.15,-106.37 203.64,-57.66l0 0zm-309.89 307.08l0 -2.93c0.02,-16.6 13.49,-30.06 30.09,-30.07l11.97 0 0 63.07 -11.97 0c-16.6,-0.02 -30.07,-13.47 -30.09,-30.07zm84.12 51.11l0 -133.53c0,-1.03 0,-2.11 0,-3.1 3.14,-17.61 12.8,-33.37 27.03,-44.16 10.91,-4.86 23.35,-4.86 34.25,0 21.79,7.64 43.03,16.72 63.62,27.15 41.76,20.41 72.25,35.28 162.6,24.71 2.63,2.42 4.94,5.18 6.88,8.18l0 128.13c-0.04,77.2 -62.63,139.79 -139.83,139.83l-14.72 0c-77.22,-0.05 -139.78,-62.63 -139.83,-139.83l0 -7.38zm-147.2 322.39c-0.93,-37.92 12.36,-74.8 37.22,-103.42 28.53,-30.69 68.1,-48.76 109.98,-50.24l0 31.91c-0.06,22 9.83,42.89 26.94,56.78 12.52,10.24 28.21,15.85 44.39,15.89 4.81,-0.02 9.58,-0.5 14.27,-1.47l40.57 -8.42 0 79.99 -147.19 0c0,-11.61 -9.41,-21.02 -21.04,-21.02 -11.61,0 -21.02,9.41 -21.02,21.02l-63.1 0c-11.61,0 -21.02,-9.41 -21.02,-21.02zm567.77 21.02l-63.07 0c0,-11.61 -9.43,-21.02 -21.04,-21.02 -11.61,0 -21.02,9.41 -21.02,21.02l-147.21 0 0 -79.9 40.49 8.27c20.79,4.4 42.45,-0.89 58.86,-14.4 17.05,-13.9 26.91,-34.75 26.82,-56.74l0 -31.91c41.91,1.48 81.49,19.57 110,50.3 24.86,28.6 38.14,65.46 37.21,103.36 0,11.61 -9.43,21.02 -21.04,21.02l0 0z"/>
   <path id="Shape_24" class="fil10" d="M1012.66 1629.86l57.94 0c58.98,-1.19 115.62,22.89 155.71,66.16 32.51,37.32 49.99,85.42 48.99,134.93 -0.08,26.63 -21.66,48.19 -48.29,48.28l-627.58 0c-26.65,-0.08 -48.21,-21.65 -48.28,-48.28 -1.01,-49.51 16.45,-97.61 48.99,-134.93 40.08,-43.27 96.73,-67.35 155.71,-66.16l256.81 0z"/>
   <path id="Shape_25" class="fil11" d="M1226.31 1696.02c-40.09,-43.27 -96.73,-67.35 -155.71,-66.16l-72.42 0c58.96,-1.19 115.63,22.89 155.69,66.16 32.54,37.32 50.02,85.42 49.01,134.93 -0.07,26.63 -21.65,48.19 -48.28,48.28l72.41 0c26.63,-0.08 48.21,-21.65 48.29,-48.28 1,-49.51 -16.48,-97.61 -48.99,-134.93z"/>
   <path id="Shape_26" class="fil1" d="M1058.06 1629.86l0 61.33c0.26,17.53 -7.38,34.27 -20.82,45.56 -13.43,11.27 -31.23,15.91 -48.47,12.62l-75.56 -15.45 -75.54 15.45c-17.24,3.29 -35.03,-1.35 -48.47,-12.62 -13.43,-11.29 -21.07,-28.03 -20.81,-45.56l0 -61.33 289.67 0z"/>
   <path id="Shape_27" class="fil6" d="M682.24 1340.19l37.86 0 0 120.68 -37.86 0c-32.41,0 -58.66,-26.26 -58.68,-58.64l0 -3.36c0,-15.57 6.19,-30.5 17.18,-41.5 11.01,-11.01 25.94,-17.18 41.5,-17.18z"/>
   <path id="Shape_28" class="fil6" d="M1106.32 1340.19l37.88 0c15.56,0 30.49,6.17 41.5,17.18 11,11 17.18,25.93 17.18,41.5l0 3.36c0,32.4 -26.27,58.68 -58.68,58.68l-37.88 0 0 -120.7 0 -0.02z"/>
   <path id="Shape_29" class="fil7" d="M1106.32 1340.21l0 -24.39c-5.68,-11.55 -14.57,-21.28 -25.59,-27.99 -147.47,19.06 -147.47,-19.06 -258.27,-57.21 -63.73,-21.72 -90.76,25.59 -102.11,69.53 -0.25,2.4 -0.25,5.07 -0.25,7.47l0 32.59c-14.23,-30.89 -42,-87.37 -38.61,-140.48 1.77,-37.77 23.22,-71.86 56.49,-89.8 3.37,-1.94 6.76,-3.86 10.62,-5.8 0,0 85.7,-154.96 289.67,-66.86 3.39,1.44 5.64,4.72 5.76,8.41 0.09,3.69 -1.96,7.12 -5.3,8.74 -9.98,4.34 -18.58,11.35 -24.86,20.27 -1.77,2.35 -2.29,5.41 -1.43,8.22 0.86,2.81 3,5.05 5.78,6.02 34.77,11.35 136.38,52.86 136.38,145.07 0,55.04 -39.34,87.62 -48.28,106.21l0 0z"/>
   <path id="Shape_30" class="fil8" d="M1154.6 1234c0,-92.21 -101.61,-133.72 -136.38,-145.07 -2.78,-0.97 -4.92,-3.21 -5.78,-6.02 -0.86,-2.81 -0.34,-5.87 1.43,-8.22 6.28,-8.92 14.88,-15.93 24.86,-20.27 3.34,-1.62 5.39,-5.05 5.3,-8.74 -0.12,-3.69 -2.37,-6.97 -5.76,-8.41 -47.84,-22.93 -101.32,-31.32 -153.87,-24.15 28.07,4.53 55.44,12.64 81.44,24.15 3.41,1.44 5.66,4.72 5.77,8.41 0.1,3.69 -1.97,7.12 -5.29,8.74 -9.99,4.34 -18.58,11.35 -24.86,20.27 -1.77,2.35 -2.29,5.41 -1.43,8.22 0.85,2.81 3,5.05 5.77,6.02 34.78,11.35 136.39,52.86 136.39,145.07 -0.13,19.32 -5.03,38.31 -14.26,55.28 4.27,-0.48 8.28,-0.87 12.8,-1.45 11.02,6.71 19.91,16.44 25.59,27.99l0 24.39c8.94,-18.59 48.28,-51.17 48.28,-106.21z"/>
   <path id="Shape_31" class="fil9" d="M1106.32 1315.82l0 153.53c-0.04,101.97 -82.68,184.63 -184.65,184.66l-16.9 0c-101.97,-0.03 -184.61,-82.69 -184.67,-184.66l0 -161.73c0,-2.4 0,-5.07 0.25,-7.47 11.35,-43.94 38.38,-91.25 102.11,-69.53 110.8,38.15 110.8,76.27 258.27,57.21 11.02,6.71 19.91,16.44 25.59,27.99z"/>
   <path id="Shape_32" class="fil6" d="M1080.73 1287.83c-21.65,2.98 -43.47,4.64 -65.33,4.98 7.66,6.33 13.96,14.18 18.51,23.01l0 153.53c0.13,91.27 -66.64,168.84 -156.9,182.32 9.18,1.51 18.46,2.31 27.76,2.42l16.9 0c101.99,-0.04 184.65,-82.74 184.65,-184.74l0 -153.53c-5.68,-11.55 -14.57,-21.28 -25.59,-27.99z"/>
   <path id="Shape_33" class="fil5" d="M1079.02 1606.14c29.55,-33.8 47.31,-76.3 50.56,-121.1l14.62 0c45.71,-0.06 82.78,-37.1 82.81,-82.81l0 -3.36c-0.09,-42.54 -32.48,-78.06 -74.81,-82.08 16.88,-24.37 26.12,-53.22 26.55,-82.87 0,-90.62 -80.09,-138.19 -128.13,-158.54 11.29,-6.09 18.1,-18.13 17.5,-30.97 -0.6,-12.82 -8.48,-24.17 -20.29,-29.2 -125.99,-54.41 -211.8,-22.45 -262.71,15.49 -86.85,82.79 -136.31,113.65 -122.97,219.9 4.83,22.44 11.78,44.35 20.76,65.44l-0.67 0c-45.71,0.06 -82.77,37.1 -82.81,82.83l0 3.36c0.04,45.71 37.1,82.75 82.81,82.79l14.63 0c3.24,44.8 21,87.32 50.57,121.12 -62.8,0.9 -122.46,27.49 -165.12,73.57 -36.67,41.74 -56.4,95.69 -55.32,151.24 0,39.99 32.42,72.41 72.41,72.41l627.6 0c40.01,0 72.44,-32.42 72.44,-72.41 1.08,-55.51 -18.64,-109.44 -55.29,-151.16 -42.64,-46.12 -102.32,-72.75 -165.14,-73.65l0 0zm-286.48 47.87l14.92 0c25.29,13.4 53.09,21.4 81.62,23.48l0 36.73 -56.33 11.54c-9.62,2.03 -19.6,-0.47 -27.13,-6.77 -8.35,-6.8 -13.16,-17.03 -13.08,-27.8l0 -37.18zm144.82 23.48c28.53,-2.08 56.32,-10.08 81.58,-23.48l14.97 0 0 37.18c0.07,10.77 -4.74,21 -13.08,27.8 -7.55,6.32 -17.6,8.8 -27.23,6.73l-56.24 -11.5 0 -36.73zm241.39 -278.62l0 3.36c-0.04,19.06 -15.48,34.51 -34.55,34.53l-13.73 0 0 -72.42 13.73 0c19.07,0.04 34.51,15.47 34.55,34.53l0 0zm-175.35 -349.15c-3.13,3.1 -5.98,6.45 -8.55,10.03 -6.62,8.57 -8.68,19.82 -5.52,30.18 3.15,10.37 11.13,18.56 21.41,21.99 27.99,9.13 119.73,44.95 119.73,122 -0.24,18.39 -5.68,36.32 -15.69,51.73 -6.45,-7.73 -14.22,-14.27 -22.94,-19.3 -4.4,-2.18 -9.32,-3.02 -14.2,-2.43 -96.79,12.58 -122.35,0 -168.81,-22.66 -25.43,-12.89 -51.69,-24.05 -78.6,-33.43 -25.19,-10.17 -53.55,-9.03 -77.85,3.13 -17.29,10.18 -31.16,25.25 -39.82,43.35 -14.48,-53.11 -9.06,-100.52 46.88,-128.62 4.29,-2.18 7.85,-5.59 10.23,-9.78 2.96,-5.33 71.33,-122.09 233.73,-66.19l0 0zm-355.71 352.51l0 -3.36c0.04,-19.08 15.49,-34.53 34.55,-34.54l13.73 0 0 72.41 -13.73 0c-19.06,-0.02 -34.51,-15.45 -34.55,-34.51zm96.56 58.64l0 -153.27c0,-1.15 0,-2.42 0,-3.56 3.6,-20.2 14.69,-38.29 31.05,-50.68 12.5,-5.57 26.78,-5.57 39.3,0 24.99,8.77 49.4,19.19 73.03,31.15 47.92,23.45 82.92,40.52 186.64,28.37 3.02,2.79 5.66,5.94 7.9,9.39l0 147.08c-0.06,88.64 -71.89,160.48 -160.52,160.51l-16.9 0c-88.62,-0.05 -160.44,-71.89 -160.5,-160.51l0 -8.48zm-168.97 370.08c-1.06,-43.51 14.18,-85.85 42.73,-118.72 32.74,-35.22 78.17,-55.98 126.24,-57.66l0 36.62c-0.07,25.27 11.3,49.23 30.92,65.16 14.38,11.78 32.39,18.21 50.96,18.27 5.5,-0.02 11,-0.6 16.38,-1.7l46.57 -9.65 0 91.81 -168.98 0c0,-13.32 -10.78,-24.13 -24.13,-24.13 -13.32,0 -24.13,10.81 -24.13,24.13l-72.41 0c-13.34,0 -24.15,-10.81 -24.15,-24.13zm651.73 24.13l-72.41 0c0,-13.32 -10.81,-24.13 -24.13,-24.13 -13.34,0 -24.15,10.81 -24.15,24.13l-168.96 0 0 -91.72 46.46 9.5c23.87,5.05 48.75,-1.04 67.6,-16.52 19.55,-15.97 30.86,-39.9 30.77,-65.15l0 -36.62c48.09,1.7 93.52,22.48 126.26,57.73 28.55,32.84 43.78,75.15 42.71,118.65 0,13.32 -10.8,24.13 -24.15,24.13l0 0z"/>
   <path id="Shape_34" class="fil2" d="M1601.04 1665.1l50.46 0c51.38,-1.04 100.74,19.92 135.64,57.62 28.35,32.52 43.57,74.42 42.69,117.56 -0.07,23.2 -18.85,41.99 -42.05,42.06l-546.75 0c-23.2,-0.07 -41.99,-18.86 -42.06,-42.06 -0.88,-43.14 14.35,-85.04 42.69,-117.56 34.9,-37.7 84.27,-58.66 135.62,-57.62l223.76 0z"/>
   <path id="Shape_35" class="fil3" d="M1787.14 1722.72c-34.9,-37.7 -84.26,-58.66 -135.64,-57.62l-63.07 0c51.35,-1.04 100.72,19.92 135.62,57.62 28.34,32.52 43.56,74.42 42.69,117.56 -0.06,23.2 -18.86,41.99 -42.06,42.06l63.1 0c23.2,-0.07 41.98,-18.86 42.05,-42.06 0.88,-43.14 -14.34,-85.04 -42.69,-117.56z"/>
   <path id="Shape_36" class="fil1" d="M1640.57 1665.1l0 53.43c0.24,15.28 -6.41,29.85 -18.14,39.67 -11.7,9.84 -27.2,13.88 -42.22,10.99l-65.82 -13.45 -65.81 13.45c-15,2.89 -30.53,-1.15 -42.23,-10.99 -11.7,-9.82 -18.35,-24.39 -18.13,-39.67l0 -53.43 252.35 0z"/>
   <path id="Shape_37" class="fil6" d="M1313.18 1412.74l32.98 0 0 105.15 -32.98 0c-28.23,0 -51.11,-22.88 -51.13,-51.11l0 -2.93c0,-13.55 5.38,-26.55 14.98,-36.13 9.58,-9.6 22.58,-14.98 36.15,-14.98z"/>
   <path id="Shape_38" class="fil6" d="M1682.62 1412.74l33 0c13.55,0 26.56,5.38 36.16,14.98 9.57,9.58 14.96,22.58 14.96,36.13l0 2.93c0,28.23 -22.88,51.13 -51.12,51.13l-33 0 0 -105.15 0 -0.02z"/>
   <path id="Shape_39" class="fil7" d="M1682.62 1412.76l0 -21.25c-4.95,-10.08 -12.69,-18.54 -22.28,-24.39 -128.49,16.62 -128.49,-16.6 -225.01,-49.83 -55.51,-18.93 -79.07,22.29 -88.94,60.56 -0.23,2.11 -0.23,4.42 -0.23,6.53l0 28.38c-12.41,-26.91 -36.58,-76.13 -33.63,-122.39 1.54,-32.89 20.22,-62.58 49.19,-78.23 2.95,-1.68 5.89,-3.36 9.26,-5.05 0,0 74.65,-135.01 252.35,-58.25 2.96,1.25 4.92,4.12 5.01,7.34 0.09,3.2 -1.69,6.19 -4.6,7.6 -8.7,3.79 -16.19,9.9 -21.65,17.67 -1.53,2.05 -2.02,4.71 -1.25,7.15 0.74,2.46 2.61,4.4 5.03,5.24 30.28,9.89 118.81,46.06 118.81,126.4 0,47.94 -34.27,76.32 -42.06,92.52l0 0z"/>
   <path id="Shape_40" class="fil8" d="M1724.68 1320.24c0,-80.34 -88.53,-116.51 -118.81,-126.4 -2.42,-0.84 -4.29,-2.78 -5.03,-5.24 -0.75,-2.44 -0.28,-5.1 1.25,-7.15 5.46,-7.77 12.95,-13.88 21.67,-17.67 2.89,-1.41 4.67,-4.4 4.58,-7.6 -0.07,-3.22 -2.05,-6.09 -5.01,-7.34 -41.67,-19.96 -88.27,-27.28 -134.04,-21.02 24.45,3.93 48.3,10.99 70.94,21.02 2.98,1.25 4.94,4.12 5.03,7.34 0.1,3.2 -1.71,6.19 -4.6,7.6 -8.7,3.79 -16.19,9.9 -21.65,17.67 -1.55,2.05 -2.01,4.71 -1.27,7.15 0.75,2.46 2.63,4.4 5.05,5.24 30.28,9.89 118.81,46.06 118.81,126.4 -0.11,16.82 -4.38,33.37 -12.43,48.15 3.73,-0.43 7.22,-0.77 11.17,-1.27 9.59,5.85 17.33,14.31 22.28,24.39l0 21.25c7.79,-16.2 42.06,-44.58 42.06,-92.52z"/>
   <path id="Shape_41" class="fil9" d="M1682.62 1391.51l0 133.76c-0.03,88.83 -72.04,160.83 -160.87,160.87l-14.72 0c-88.83,-0.04 -160.83,-72.04 -160.87,-160.87l0 -140.89c0,-2.11 0,-4.42 0.23,-6.53 9.87,-38.27 33.43,-79.49 88.94,-60.56 96.52,33.23 96.52,66.45 225.01,49.83 9.59,5.85 17.33,14.31 22.28,24.39z"/>
   <path id="Shape_42" class="fil6" d="M1660.34 1367.12c-18.88,2.61 -37.89,4.04 -56.93,4.34 6.69,5.52 12.17,12.36 16.14,20.05l0 133.76c0.09,79.49 -58.07,147.08 -136.69,158.82 8,1.32 16.07,2.01 24.17,2.11l14.72 0c88.87,-0.04 160.87,-72.08 160.87,-160.93l0 -133.76c-4.95,-10.08 -12.69,-18.54 -22.28,-24.39z"/>
   <path id="Shape_43" class="fil5" d="M1658.85 1644.44c25.75,-29.46 41.2,-66.49 44.03,-105.51l12.74 0c39.83,-0.04 72.1,-32.31 72.16,-72.15l0 -2.93c-0.1,-37.04 -28.31,-68 -65.2,-71.48 14.72,-21.24 22.77,-46.38 23.14,-72.21 0,-78.93 -69.79,-120.38 -111.62,-138.12 9.84,-5.31 15.76,-15.8 15.24,-26.96 -0.52,-11.18 -7.4,-21.07 -17.68,-25.45 -109.76,-47.41 -184.52,-19.55 -228.87,13.49 -75.65,72.13 -118.74,99 -107.11,191.58 4.19,19.54 10.25,38.63 18.08,57l-0.58 0c-39.84,0.06 -72.12,32.33 -72.15,72.15l0 2.93c0.03,39.82 32.31,72.09 72.15,72.13l12.75 0c2.81,39.02 18.28,76.07 44.05,105.53 -54.71,0.76 -106.7,23.92 -143.84,64.1 -31.96,36.35 -49.16,83.35 -48.21,131.74 0,34.83 28.25,63.08 63.1,63.08l546.75 0c34.84,0 63.07,-28.25 63.07,-63.08 0.95,-48.37 -16.21,-95.35 -48.15,-131.69 -37.14,-40.19 -89.14,-63.37 -143.85,-64.15l0 0zm-249.59 41.7l13 0c22.03,11.67 46.26,18.63 71.11,20.46l0 31.98 -49.08 10.06c-8.37,1.77 -17.09,-0.41 -23.65,-5.89 -7.26,-5.94 -11.46,-14.85 -11.38,-24.22l0 -32.39zm126.17 20.46c24.86,-1.83 49.07,-8.79 71.07,-20.46l13.05 0 0 32.39c0.05,9.37 -4.14,18.28 -11.41,24.22 -6.58,5.5 -15.33,7.66 -23.72,5.87l-48.99 -10.04 0 -31.98zm210.29 -242.75l0 2.93c-0.04,16.62 -13.49,30.07 -30.1,30.09l-11.96 0 0 -63.08 11.96 0c16.61,0.02 30.06,13.48 30.1,30.06l0 0zm-152.76 -304.15c-2.73,2.69 -5.2,5.61 -7.44,8.72 -5.78,7.47 -7.57,17.28 -4.83,26.31 2.76,9.02 9.71,16.18 18.66,19.16 24.39,7.96 104.31,39.15 104.31,106.27 -0.22,16.03 -4.96,31.64 -13.68,45.08 -5.6,-6.75 -12.37,-12.45 -19.97,-16.83 -3.82,-1.9 -8.13,-2.63 -12.36,-2.1 -84.34,10.95 -106.6,0 -147.08,-19.76 -22.15,-11.21 -45.02,-20.94 -68.48,-29.12 -21.95,-8.85 -46.64,-7.87 -67.81,2.74 -15.06,8.85 -27.15,21.99 -34.7,37.75 -12.61,-46.27 -7.88,-87.56 40.85,-112.05 3.75,-1.9 6.84,-4.86 8.91,-8.51 2.59,-4.64 62.14,-106.37 203.62,-57.66l0 0zm-309.88 307.08l0 -2.93c0.02,-16.6 13.48,-30.06 30.1,-30.07l11.96 0 0 63.07 -11.96 0c-16.62,-0.02 -30.08,-13.47 -30.1,-30.07zm84.12 51.11l0 -133.53c0,-1.03 0,-2.11 0,-3.1 3.13,-17.61 12.8,-33.37 27.04,-44.16 10.9,-4.86 23.35,-4.86 34.23,0 21.78,7.64 43.05,16.72 63.64,27.15 41.74,20.41 72.22,35.28 162.6,24.71 2.61,2.42 4.92,5.18 6.88,8.18l0 128.13c-0.06,77.2 -62.63,139.79 -139.86,139.83l-14.72 0c-77.2,-0.05 -139.77,-62.63 -139.81,-139.83l0 -7.38zm-147.21 322.39c-0.91,-37.92 12.35,-74.8 37.23,-103.42 28.53,-30.69 68.09,-48.76 109.98,-50.24l0 31.91c-0.07,22 9.84,42.89 26.93,56.78 12.54,10.24 28.21,15.85 44.4,15.89 4.79,-0.02 9.58,-0.5 14.28,-1.47l40.56 -8.42 0 79.99 -147.21 0c0,-11.61 -9.41,-21.02 -21.02,-21.02 -11.63,0 -21.04,9.41 -21.04,21.02l-63.07 0c-11.61,0 -21.04,-9.41 -21.04,-21.02zm567.79 21.02l-63.1 0c0,-11.61 -9.41,-21.02 -21.02,-21.02 -11.63,0 -21.04,9.41 -21.04,21.02l-147.19 0 0 -79.9 40.47 8.27c20.8,4.4 42.47,-0.89 58.89,-14.4 17.03,-13.9 26.89,-34.75 26.81,-56.74l0 -31.91c41.89,1.48 81.47,19.57 110,50.3 24.86,28.6 38.13,65.46 37.2,103.36 0,11.61 -9.41,21.02 -21.02,21.02l0 0z"/>
   <path id="Shape_44" class="fil4" d="M1674.41 508.04l-110.75 167.95c-2.51,3.82 -2.66,8.72 -0.37,12.67 2.29,3.97 6.61,6.3 11.18,6.02l35.87 -2.18c6.82,-0.33 12.62,4.92 12.95,11.72 9.1,231.2 -126.21,309.52 -126.21,309.52 276.16,-16.73 275.36,-261.11 271.28,-318.72 -0.39,-6.65 4.66,-12.38 11.33,-12.79l35.72 -2.16c4.57,-0.28 8.57,-3.11 10.38,-7.3 1.79,-4.21 1.04,-9.08 -1.9,-12.56l-130.22 -153.32c-2.46,-2.91 -6.13,-4.48 -9.93,-4.25 -3.78,0.24 -7.25,2.23 -9.33,5.4l0 0z"/>
   <path id="Shape_45" class="fil5" d="M1682.29 478.54c-11.39,0.65 -21.8,6.67 -28.05,16.21l-110.72 167.97c-7.55,11.45 -7.96,26.17 -1.1,38.04 6.86,11.87 19.83,18.84 33.5,18.02l23.59 -1.44c3.51,202.93 -109.7,272.66 -114.52,275.38 -9.86,5.53 -14.56,17.16 -11.31,27.99 3.26,10.82 13.58,17.94 24.85,17.12 95.56,-5.77 169.8,-38.12 220.65,-96.11 69.81,-79.59 75.9,-184.18 73.96,-236.12l23.74 -1.43c13.68,-0.82 25.74,-9.32 31.1,-21.94 5.39,-12.61 3.19,-27.18 -5.7,-37.64l-130.2 -153.34c-7.36,-8.72 -18.41,-13.43 -29.79,-12.71l0 0zm107.57 178.91l-11.64 0.69c-9.6,0.56 -18.58,4.9 -24.95,12.09 -6.38,7.22 -9.62,16.66 -9,26.24l0.03 0.39c1.87,30.77 4.23,138.27 -61.43,213.12 -29.97,33.25 -69.12,56.84 -112.5,67.79 39.47,-50.12 82.44,-136.94 77.02,-274.31 -0.58,-9.73 -4.85,-18.86 -11.93,-25.57 -7.23,-6.58 -16.81,-10 -26.57,-9.48l-11.78 0.71 88.59 -134.36 104.16 122.69z"/>
  </g>
 </g>
</svg>
