<?xml version="1.0" encoding="UTF-8"?>
<!DOCTYPE svg PUBLIC "-//W3C//DTD SVG 1.1//EN" "http://www.w3.org/Graphics/SVG/1.1/DTD/svg11.dtd">
<!-- Creator: CorelDRAW 2020 (64 Bit) -->
<svg xmlns="http://www.w3.org/2000/svg" xml:space="preserve" width="18.7112mm" height="18.9864mm" version="1.1" style="shape-rendering:geometricPrecision; text-rendering:geometricPrecision; image-rendering:optimizeQuality; fill-rule:evenodd; clip-rule:evenodd"
viewBox="0 0 1871.12 1898.64"
 xmlns:xlink="http://www.w3.org/1999/xlink"
 xmlns:xodm="http://www.corel.com/coreldraw/odm/2003">
 <defs>
  <style type="text/css">
   <![CDATA[
    .fil1 {fill:#4049E3}
    .fil0 {fill:#C8094F}
    .fil2 {fill:#FEFFFE}
   ]]>
  </style>
 </defs>
 <g id="Camada_x0020_1">
  <metadata id="CorelCorpID_0Corel-Layer"/>
  <g id="_1561963073952">
   <circle class="fil0" cx="437.59" cy="465.67" r="437.38"/>
   <circle class="fil1" cx="1425.07" cy="465.67" r="437.38"/>
   <path class="fil2" d="M415.6 191.22c-185.9,15.53 -300.52,206.45 -230.97,375.83 3.69,8.99 9.75,16.9 8.12,27.24l-18.78 90.19c-2.93,13.85 -16.71,52.82 -1.04,56.16 6.71,1.43 103.18,-22.68 117.2,-26.22 34.28,-8.68 24.76,-5.08 54.54,6.09 17.86,6.7 38.16,11.47 58.45,14.09 167.79,21.73 304.4,-110.2 307.69,-265.42 3.37,-159.09 -131.33,-291.64 -295.21,-277.96z"/>
   <path class="fil0" d="M239.03 664.93c17.64,-3.02 77.64,-22.39 88.85,-17.36 29.13,13.05 46.85,23.78 84.04,28.14 58.56,6.86 128.38,-13.42 166.97,-51.52 41.57,-41.03 69.15,-84.19 72.4,-149.83 4.6,-92.8 -52.49,-175.48 -126.2,-206.37 -29.2,-12.23 -58.49,-19.54 -94.39,-18.41 -31.42,0.98 -65.04,9.85 -88.78,22.29 -19.64,10.29 -49.37,30.73 -63.69,48.18 -32.75,39.91 -61.87,93.93 -53.29,167.58 8.6,73.76 35.98,71.64 28.5,105.55l-14.41 71.75z"/>
   <path class="fil2" d="M343.1 332.53c-12.25,3.04 -30.85,26.14 -36.9,37.98 -25.92,50.69 26.69,120.35 58.71,150.62 24.57,23.23 48.26,44.39 86.24,61.88 96.65,44.52 150.1,-35.75 126.7,-56.08 -6.54,-5.69 -44.19,-14.62 -56.04,-17.99 -48.04,-13.67 -19.64,79.45 -134.18,-39.85 -14.8,-15.42 -25.43,-26.36 -8.12,-47.72 17.56,-21.67 8.36,-27.7 -2.38,-51.93 -6.68,-15.07 -12.99,-42.15 -34.03,-36.91z"/>
   <path class="fil2" d="M1405.79 191.22c-185.91,15.53 -300.52,206.45 -230.97,375.83 3.69,8.99 9.74,16.9 8.11,27.24l-18.78 90.19c-2.92,13.85 -16.71,52.82 -1.04,56.16 6.72,1.43 103.19,-22.68 117.21,-26.22 34.28,-8.68 24.75,-5.08 54.53,6.09 17.87,6.7 38.16,11.47 58.46,14.09 167.78,21.73 304.4,-110.2 307.68,-265.42 3.37,-159.09 -131.33,-291.64 -295.2,-277.96z"/>
   <path class="fil1" d="M1229.21 664.93c17.64,-3.02 77.64,-22.39 88.85,-17.36 29.14,13.05 46.86,23.78 84.05,28.14 58.56,6.86 128.38,-13.42 166.97,-51.52 41.56,-41.03 69.14,-84.19 72.4,-149.83 4.59,-92.8 -52.5,-175.48 -126.21,-206.37 -29.19,-12.23 -58.48,-19.54 -94.39,-18.41 -31.42,0.98 -65.03,9.85 -88.78,22.29 -19.63,10.29 -49.37,30.73 -63.69,48.18 -32.74,39.91 -61.87,93.93 -53.28,167.58 8.59,73.76 35.97,71.64 28.5,105.55l-14.42 71.75z"/>
   <path class="fil2" d="M1333.28 332.53c-12.25,3.04 -30.85,26.14 -36.9,37.98 -25.91,50.69 26.69,120.35 58.71,150.62 24.58,23.23 48.27,44.39 86.24,61.88 96.66,44.52 150.1,-35.75 126.71,-56.08 -6.55,-5.69 -44.19,-14.62 -56.04,-17.99 -48.05,-13.67 -19.64,79.45 -134.18,-39.85 -14.81,-15.42 -25.43,-26.36 -8.13,-47.72 17.56,-21.67 8.36,-27.7 -2.38,-51.93 -6.67,-15.07 -12.98,-42.15 -34.03,-36.91z"/>
   <g>
    <circle class="fil0" cx="1425.07" cy="1447.79" r="437.38"/>
    <circle class="fil1" cx="437.59" cy="1447.79" r="437.38"/>
   </g>
   <g>
    <path class="fil2" d="M415.6 1169.3c-185.9,15.53 -300.52,206.45 -230.97,375.83 3.69,8.99 9.75,16.9 8.12,27.24l-18.78 90.19c-2.93,13.85 -16.71,52.82 -1.04,56.16 6.71,1.43 103.18,-22.68 117.2,-26.23 34.28,-8.67 24.76,-5.07 54.54,6.1 17.86,6.7 38.16,11.47 58.45,14.09 167.79,21.73 304.4,-110.2 307.69,-265.42 3.37,-159.1 -131.33,-291.64 -295.21,-277.96z"/>
    <path class="fil1" d="M239.03 1643.01c17.64,-3.02 77.64,-22.39 88.85,-17.37 29.13,13.06 46.85,23.79 84.04,28.15 58.56,6.86 128.38,-13.42 166.97,-51.52 41.57,-41.03 69.15,-84.19 72.4,-149.84 4.6,-92.79 -52.49,-175.48 -126.2,-206.36 -29.2,-12.23 -58.49,-19.54 -94.39,-18.41 -31.42,0.98 -65.04,9.85 -88.78,22.29 -19.64,10.29 -49.37,30.73 -63.69,48.18 -32.75,39.91 -61.87,93.93 -53.29,167.58 8.6,73.76 35.98,71.63 28.5,105.55l-14.41 71.75z"/>
    <path class="fil2" d="M343.1 1310.61c-12.25,3.04 -30.85,26.14 -36.9,37.98 -25.92,50.69 26.69,120.35 58.71,150.62 24.57,23.23 48.26,44.39 86.24,61.88 96.65,44.52 150.1,-35.75 126.7,-56.08 -6.54,-5.69 -44.19,-14.62 -56.04,-18 -48.04,-13.66 -19.64,79.46 -134.18,-39.84 -14.8,-15.42 -25.43,-26.36 -8.12,-47.72 17.56,-21.68 8.36,-27.7 -2.38,-51.93 -6.68,-15.07 -12.99,-42.15 -34.03,-36.91z"/>
    <path class="fil2" d="M1405.79 1169.3c-185.91,15.53 -300.52,206.45 -230.97,375.83 3.69,8.99 9.74,16.9 8.11,27.24l-18.78 90.19c-2.92,13.85 -16.71,52.82 -1.04,56.16 6.72,1.43 103.19,-22.68 117.21,-26.23 34.28,-8.67 24.75,-5.07 54.53,6.1 17.87,6.7 38.16,11.47 58.46,14.09 167.78,21.73 304.4,-110.2 307.68,-265.42 3.37,-159.1 -131.33,-291.64 -295.2,-277.96z"/>
    <path class="fil0" d="M1229.21 1643.01c17.64,-3.02 77.64,-22.39 88.85,-17.37 29.14,13.06 46.86,23.79 84.05,28.15 58.56,6.86 128.38,-13.42 166.97,-51.52 41.56,-41.03 69.14,-84.19 72.4,-149.84 4.59,-92.79 -52.5,-175.48 -126.21,-206.36 -29.19,-12.23 -58.48,-19.54 -94.39,-18.41 -31.42,0.98 -65.03,9.85 -88.78,22.29 -19.63,10.29 -49.37,30.73 -63.69,48.18 -32.74,39.91 -61.87,93.93 -53.28,167.58 8.59,73.76 35.97,71.63 28.5,105.55l-14.42 71.75z"/>
    <path class="fil2" d="M1333.28 1310.61c-12.25,3.04 -30.85,26.14 -36.9,37.98 -25.91,50.69 26.69,120.35 58.71,150.62 24.58,23.23 48.27,44.39 86.24,61.88 96.66,44.52 150.1,-35.75 126.71,-56.08 -6.55,-5.69 -44.19,-14.62 -56.04,-18 -48.05,-13.66 -19.64,79.46 -134.18,-39.84 -14.81,-15.42 -25.43,-26.36 -8.13,-47.72 17.56,-21.68 8.36,-27.7 -2.38,-51.93 -6.67,-15.07 -12.98,-42.15 -34.03,-36.91z"/>
   </g>
  </g>
 </g>
</svg>
