<?xml version="1.0" encoding="UTF-8"?>
<!DOCTYPE svg PUBLIC "-//W3C//DTD SVG 1.1//EN" "http://www.w3.org/Graphics/SVG/1.1/DTD/svg11.dtd">
<!-- Creator: CorelDRAW 2020 (64 Bit) -->
<svg xmlns="http://www.w3.org/2000/svg" xml:space="preserve" width="18.7112mm" height="18.9864mm" version="1.1" style="shape-rendering:geometricPrecision; text-rendering:geometricPrecision; image-rendering:optimizeQuality; fill-rule:evenodd; clip-rule:evenodd"
viewBox="0 0 1871.12 1898.64"
 xmlns:xlink="http://www.w3.org/1999/xlink"
 xmlns:xodm="http://www.corel.com/coreldraw/odm/2003"
 xmlns:svgjs="http://svgjs.com/svgjs">
 <defs>
  <style type="text/css">
   <![CDATA[
    .str0 {stroke:black;stroke-width:88.19;stroke-linecap:round;stroke-linejoin:round;stroke-miterlimit:22.9256}
    .fil0 {fill:none}
    .fil4 {fill:#00143C;fill-rule:nonzero}
    .fil2 {fill:#00325A;fill-rule:nonzero}
    .fil5 {fill:#0082AA;fill-rule:nonzero}
    .fil3 {fill:#00A0C8;fill-rule:nonzero}
    .fil8 {fill:#4049E3;fill-rule:nonzero}
    .fil1 {fill:#A00028;fill-rule:nonzero}
    .fil7 {fill:#C8094F;fill-rule:nonzero}
    .fil6 {fill:#F0C8A0;fill-rule:nonzero}
   ]]>
  </style>
 </defs>
 <g id="Camada_x0020_1">
  <metadata id="CorelCorpID_0Corel-Layer"/>
  <g>
   <path class="fil0 str0" d="M970.06 1463.76c1.02,0.21 2.05,0.43 3.06,0.67 -1.01,-0.24 -2.04,-0.46 -3.06,-0.67zm-80.2 0.6c-9.99,2.26 -19.67,5.35 -28.95,9.25l18.23 27.36c7.55,11 17.91,19.17 30.18,23.9 7.23,-1.58 14.46,-2.21 22.01,-2.21 7.55,0 14.78,0.63 22.01,2.21 12.27,-4.73 22.63,-12.9 30.18,-23.9l18.23 -27.36c-9.18,-3.85 -18.75,-6.92 -28.63,-9.18 84.07,19.02 146.85,94.18 146.85,184 0,104.18 -84.45,188.64 -188.64,188.64 -104.19,0 -188.64,-84.46 -188.64,-188.64 0,-89.94 62.93,-165.18 147.17,-184.07zm2.77 -0.6c-0.93,0.19 -1.86,0.39 -2.77,0.6 0.91,-0.21 1.84,-0.42 2.77,-0.6zm730.4 -349.83c104.19,0 188.64,84.45 188.64,188.65 0,104.19 -84.45,188.63 -188.64,188.63 -104.2,0 -188.65,-84.44 -188.65,-188.63 0,-6.27 0.35,-12.45 0.95,-18.59l-192.99 -111.41 -17.79 30.8c-12.55,21.72 -44.26,20.71 -55.41,-1.79l-12.7 -25.75c-7.67,7.87 -15.76,15.33 -24.23,22.3 -47.19,39.27 -105.81,64.96 -169.44,71.39l0 64.49 35.56 0c25.12,0 40.12,27.98 26.19,48.89 -0.48,0.73 -34.45,51.14 -54.46,80.85 -8.4,12.46 -14.33,21.27 -14.33,21.27 -12.52,15.94 -36.25,15.94 -48.76,0 0,0 -5.95,-8.82 -14.34,-21.28 -20.02,-29.69 -53.95,-80.07 -54.46,-80.84 -13.92,-20.91 1.04,-48.89 26.17,-48.89l35.55 0 0 -64.46c-64,-6.38 -122.63,-32.01 -169.78,-71.05 -8.38,-7.02 -16.41,-14.47 -24.04,-22.3l-12.55 25.4c-11.15,22.53 -42.86,23.56 -55.41,1.8l-17.79 -30.81 -198.17 114.41c3.86,15.06 6.13,30.75 6.13,47.01 0,104.19 -84.45,188.64 -188.65,188.64 -104.19,0 -188.64,-84.45 -188.64,-188.64 0,-104.2 84.45,-188.65 188.64,-188.65 65.4,0 123.01,33.3 156.87,83.85l192.38 -111.08 -17.79 -30.8c-12.58,-21.76 4.18,-48.71 29.24,-47.11l28.25 1.82c-7.59,-27.07 -11.66,-55.68 -11.66,-85.32 0,-39.61 7.62,-77.29 20.85,-112.08l-121.01 -69.87 -17.77 30.78c-12.55,21.73 -44.27,20.72 -55.4,-1.79l-53.54 -108.31c-0.23,-0.46 -0.44,-0.92 -0.61,-1.35 -34.48,44.98 -88.75,73.98 -149.81,73.98 -104.18,0 -188.64,-84.46 -188.64,-188.65 0,-104.19 84.46,-188.64 188.64,-188.64 104.19,0 188.65,84.45 188.65,188.64 0,13.26 -1.37,26.21 -3.98,38.69l0.21 -0.01c-2.4,11.1 -5.75,21.86 -9.97,32.19 0.55,-0.06 1.1,-0.12 1.66,-0.15l120.58 -7.77c25.06,-1.61 41.79,25.34 29.24,47.1l-17.79 30.81 117.84 68.03c36.73,-57.72 91.62,-102.57 156.44,-126.58 10.24,-3.79 20.72,-7.06 31.41,-9.78l-15.75 -23.64c-13.92,-20.91 1.04,-48.89 26.17,-48.89l35.55 0 0 -128.59c-89.19,-15 -157.2,-92.37 -157.2,-185.82 0,-104.19 84.45,-188.64 188.64,-188.64 104.19,0 188.64,84.45 188.64,188.64 0,93.45 -68.01,170.82 -157.2,185.82l0 128.59 35.55 0c25.13,0 40.13,27.98 26.23,48.89l-15.77 23.66c10.67,2.71 21.14,5.99 31.35,9.77 64.8,24 119.72,68.84 156.47,126.6l117.83 -68.04 -17.78 -30.8c-12.58,-21.76 4.17,-48.71 29.23,-47.1l120.58 7.76c0.57,0.03 1.13,0.09 1.68,0.16 -4.24,-10.34 -7.59,-21.11 -9.99,-32.22l0.21 0.01c-2.61,-12.48 -3.98,-25.43 -3.98,-38.69 0,-104.19 84.46,-188.64 188.65,-188.64 104.18,0 188.64,84.45 188.64,188.64 0,104.19 -84.46,188.65 -188.64,188.65 -61.06,0 -115.34,-29 -149.82,-73.99 -0.2,0.45 -0.4,0.91 -0.63,1.36l-53.54 108.31c-11.14,22.51 -42.85,23.55 -55.4,1.79l-17.76 -30.78 -121.02 69.87c13.27,34.77 20.88,72.44 20.88,112.08 0,29.65 -4.1,58.26 -11.75,85.3l28.34 -1.83c25.07,-1.6 41.79,25.35 29.24,47.1l-17.79 30.82 179.1 103.4c30.33,-63.54 95,-107.59 170.15,-107.59z"/>
  </g>
  <g>
   <path class="fil1" d="M759.35 1140.03l-29.24 58.48c-55.96,-46.85 -95.89,-112.56 -108.47,-188.33l64.77 4.09c11.32,49.36 37.41,92.75 72.94,125.76l0 0z" data-original="#a00028"/>
   <path class="fil1" d="M1241.02 1010.18c-12.89,75.77 -52.82,141.48 -108.78,188.01l-44.96 -90.86c-19.81,-40.24 7.86,-87.72 52.5,-90.55l101.24 -6.6z" data-original="#a00028"/>
   <path class="fil1" d="M1040.12 661.82l-36.16 54.07c-22.95,-6.91 -47.48,-10.69 -72.63,-10.69 -25.15,0 -49.67,3.78 -72.63,10.69l-36.15 -54.07c33.95,-12.58 70.42,-19.5 108.78,-19.5 38.36,0 74.83,6.92 108.79,19.5z" data-original="#a00028"/>
  </g>
  <circle class="fil2" cx="931.33" cy="1648.42" r="188.64" data-original="#00325a"/>
  <path class="fil3" d="M1057.09 1648.42c0,71.37 -58.79,125.77 -125.76,125.77 -66.65,0 -125.76,-54.39 -125.76,-125.77 0,-61.93 44.64,-113.18 103.75,-123.56l0.32 0c7.23,-1.57 14.15,-2.2 21.69,-2.2 7.55,0 14.46,0.63 21.69,2.2l0.32 0c59.11,10.38 103.75,61.63 103.75,123.56z" data-original="#00a0c8"/>
  <path class="fil4" d="M1001.76 1473.61l-18.24 27.36c-7.54,11 -17.92,19.18 -30.18,23.89l-0.32 0c-7.23,-1.57 -14.14,-2.2 -21.69,-2.2 -7.54,0 -14.46,0.63 -21.69,2.2l-0.32 0c-12.26,-4.71 -22.64,-12.89 -30.18,-23.89l-18.24 -27.36c21.7,-9.11 45.59,-13.83 70.43,-13.83 24.84,0 48.73,4.72 70.43,13.83l0 0z" data-original="#00143c"/>
  <path class="fil5" d="M953.34 1524.86c-6.92,2.52 -14.46,4.09 -22.01,4.09 -7.54,0 -15.09,-1.57 -22.01,-4.09 7.23,-1.57 14.47,-2.2 22.01,-2.2 7.55,0 14.78,0.63 22.01,2.2z" data-original="#0082aa"/>
  <g>
   <circle class="fil6" cx="931.33" cy="1632.7" r="62.88" data-original="#f0c8a0"/>
   <path class="fil7" d="M1013.39 1743.37c-22.32,19.18 -50.93,30.82 -82.06,30.82 -31.13,0 -59.74,-11.64 -82.06,-30.82 16.04,-28.61 46.85,-47.78 82.06,-47.78 26.1,0 49.68,10.69 66.65,27.66 5.98,5.98 11.01,12.58 15.41,20.13l0 -0.01z" data-original="#c8094f"/>
  </g>
  <circle class="fil2" cx="1623.03" cy="579.44" r="188.64" data-original="#00325a"/>
  <circle class="fil3" cx="1623.03" cy="579.44" r="125.76" data-original="#00a0c8"/>
  <path class="fil4" d="M1500.72 709.29l-4.72 9.43c-28.92,-26.09 -49.36,-61.31 -57.85,-100.61l10.38 0.63c43.7,2.61 72.5,49.9 52.19,90.55z" data-original="#00143c"/>
  <g>
   <circle class="fil6" cx="1623.03" cy="563.72" r="62.88" data-original="#f0c8a0"/>
   <path class="fil7" d="M1705.09 674.39c-22.33,19.18 -50.94,30.81 -82.06,30.81 -31.13,0 -59.74,-11.63 -82.06,-30.81 16.03,-28.61 46.84,-47.79 82.06,-47.79 26.09,0 49.67,10.69 66.65,27.67 5.97,5.97 11,12.58 15.41,20.12l0 0z" data-original="#c8094f"/>
  </g>
  <circle class="fil2" cx="239.64" cy="579.44" r="188.64" data-original="#00325a"/>
  <path class="fil4" d="M424.51 618.11c-8.49,39.3 -28.93,74.52 -57.85,100.61l-4.72 -9.43c-9.43,-18.86 -8.8,-40.87 1.89,-59.11 10.37,-18.23 29.24,-30.18 50.3,-31.44l10.38 -0.63z" data-original="#00143c"/>
  <circle class="fil3" cx="239.64" cy="579.44" r="125.76" data-original="#00a0c8"/>
  <g>
   <circle class="fil6" cx="239.64" cy="563.72" r="62.88" data-original="#f0c8a0"/>
   <path class="fil7" d="M157.58 674.39c22.32,19.18 50.93,30.81 82.06,30.81 31.12,0 59.73,-11.63 82.06,-30.81 -16.04,-28.61 -46.85,-47.79 -82.06,-47.79 -26.1,0 -49.68,10.69 -66.66,27.67 -5.97,5.97 -11,12.58 -15.4,20.12l0 0z" data-original="#c8094f"/>
  </g>
  <path class="fil7" d="M1446.46 650.18l-120.58 -7.76c-25.06,-1.61 -41.82,25.34 -29.24,47.1l17.8 30.81 -117.84 68.04c-56,-88.04 -154.25,-146.05 -265.27,-146.05 -111.17,0 -209.3,58.07 -265.26,146.01l-117.84 -68.03 17.79 -30.82c12.55,-21.75 -4.18,-48.7 -29.24,-47.09l-120.57 7.76c-22.39,1.45 -36.1,25.19 -26.16,45.31l53.54 108.31c11.13,22.51 42.85,23.52 55.4,1.79l17.76 -30.78 121.02 69.86c-13.24,34.81 -20.85,72.47 -20.85,112.09 0,164.34 125.17,297.11 282.97,312.83l0 64.46 -35.56 0c-25.12,0 -40.09,27.98 -26.16,48.89 0.73,1.1 68.79,102.12 68.79,102.12 12.52,15.94 36.26,15.94 48.77,0 0,0 68.1,-101.09 68.79,-102.12 13.93,-20.91 -1.07,-48.89 -26.19,-48.89l-35.56 0 0 -64.49c156.64,-15.81 282.97,-148.46 282.97,-312.8 0,-39.65 -7.61,-77.31 -20.88,-112.09l121.02 -69.86 17.76 30.78c12.55,21.76 44.27,20.72 55.4,-1.79l53.54 -108.31c9.97,-20.09 -3.74,-43.86 -26.12,-45.28z" data-original="#c8094f"/>
  <circle class="fil2" cx="931.33" cy="956.73" r="251.52" data-original="#00325a"/>
  <g>
   <path class="fil4" d="M775.38 1107.33l-16.03 32.7c-35.53,-33.02 -61.62,-76.4 -72.94,-125.77l36.47 2.52c44.93,2.67 71.93,50.4 52.5,90.55l0 0z" data-original="#00143c"/>
  </g>
  <path class="fil4" d="M1175.94 1014.58c-11.32,49.36 -37.1,92.12 -72.63,125.13l-16.03 -32.38c-19.81,-40.24 7.86,-87.72 52.5,-90.55l36.16 -2.2z" data-original="#00143c"/>
  <path class="fil1" d="M1241.02 1010.18c-12.89,75.77 -52.82,141.48 -108.78,188.01l-28.93 -58.48c35.53,-33.01 61.31,-76.08 72.63,-125.44l65.08 -4.09z" data-original="#a00028"/>
  <path class="fil4" d="M1003.96 715.89l-20.44 30.5c-25.09,37.29 -79.32,37.26 -104.38,0l-20.44 -30.5c22.96,-6.91 47.48,-10.69 72.63,-10.69 25.15,0 49.68,3.78 72.63,10.69l0 0z" data-original="#00143c"/>
  <circle class="fil6" cx="931.33" cy="925.29" r="94.32" data-original="#f0c8a0"/>
  <path class="fil3" d="M1057.09 1082.49l0 91.81c-37.1,21.69 -80.17,33.96 -125.76,33.96 -45.59,0 -88.66,-12.27 -125.76,-33.96l0 -91.81c0,-34.58 28.29,-62.88 62.88,-62.88l125.76 0c34.59,0 62.88,28.3 62.88,62.88l0 0z" data-original="#00a0c8"/>
  <path class="fil8" d="M720.9 1048l-120.58 -7.76c-25.06,-1.61 -41.81,25.34 -29.24,47.09l17.8 30.82 -192.39 111.08c-33.86,-50.56 -91.46,-83.86 -156.86,-83.86 -104.19,0 -188.64,84.45 -188.64,188.65 0,104.19 84.45,188.64 188.64,188.64 104.2,0 188.65,-84.45 188.65,-188.64 0,-16.26 -2.27,-31.95 -6.13,-47.01l198.17 -114.41 17.79 30.81c12.55,21.76 44.27,20.72 55.4,-1.79l53.55 -108.31c9.93,-20.1 -3.78,-43.86 -26.16,-45.31l0 0z" data-original="#fab400"/>
  <path class="fil8" d="M1623.03 1113.93c-75.15,0 -139.82,44.05 -170.16,107.59l-179.09 -103.41 17.8 -30.81c12.54,-21.75 -4.18,-48.7 -29.24,-47.1l-120.58 7.77c-22.38,1.45 -36.09,25.21 -26.16,45.3l53.55 108.32c11.13,22.51 42.85,23.52 55.4,1.79l17.79 -30.81 192.99 111.43c-0.6,6.13 -0.95,12.32 -0.95,18.58 0,104.19 84.45,188.64 188.65,188.64 104.19,0 188.64,-84.45 188.64,-188.64 0,-104.2 -84.45,-188.65 -188.64,-188.65l0 0z" data-original="#fab400"/>
  <path class="fil8" d="M1119.97 265.03c0,-104.19 -84.45,-188.64 -188.64,-188.64 -104.19,0 -188.64,84.45 -188.64,188.64 0,93.45 68,170.82 157.2,185.82l0 128.59 -35.56 0c-25.12,0 -40.09,27.98 -26.16,48.89l67.03 100.52c12.45,18.67 39.87,18.67 52.32,0l67.03 -100.52c13.9,-20.91 -1.1,-48.89 -26.22,-48.89l-35.56 0 0 -128.59c89.2,-15 157.2,-92.37 157.2,-185.82z" data-original="#fab400"/>
  <g>
   <circle class="fil2" cx="931.33" cy="265.03" r="125.76" data-original="#00325a"/>
   <g id="_1561707468752">
    <circle class="fil6" cx="931.33" cy="249.31" r="62.88" data-original="#f0c8a0"/>
    <path class="fil7" d="M1013.39 359.99c-22.32,19.18 -50.93,30.81 -82.06,30.81 -31.13,0 -59.74,-11.64 -82.06,-30.81 16.04,-28.62 46.85,-47.79 82.06,-47.79 26.1,0 49.68,10.69 66.65,27.66 5.98,5.98 11.01,12.58 15.41,20.13l0 0z" data-original="#c8094f"/>
   </g>
  </g>
  <circle class="fil2" cx="239.64" cy="1334.02" r="125.76" data-original="#00325a"/>
  <circle class="fil6" cx="239.64" cy="1318.3" r="62.88" data-original="#f0c8a0"/>
  <path class="fil7" d="M321.7 1428.97c-22.33,19.18 -50.94,30.81 -82.06,30.81 -31.13,0 -59.74,-11.63 -82.06,-30.81 16.03,-28.61 46.84,-47.79 82.06,-47.79 26.09,0 49.67,10.69 66.65,27.67 5.97,5.97 11,12.57 15.41,20.12l0 0z" data-original="#c8094f"/>
  <circle class="fil8" cx="1623.03" cy="1302.58" r="125.76" data-original="#fab400"/>
  <circle class="fil2" cx="1623.03" cy="1302.58" r="125.76" data-original="#00325a"/>
  <g>
   <circle class="fil6" cx="1623.03" cy="1286.86" r="62.88" data-original="#f0c8a0"/>
   <path class="fil7" d="M1540.97 1397.53c22.32,19.18 50.93,30.81 82.06,30.81 31.12,0 59.73,-11.63 82.06,-30.81 -16.04,-28.61 -46.85,-47.79 -82.06,-47.79 -26.1,0 -49.68,10.69 -66.66,27.67 -5.97,5.97 -11,12.57 -15.4,20.12l0 0z" data-original="#c8094f"/>
  </g>
 </g>
</svg>
