<?xml version="1.0"?>
<svg xmlns="http://www.w3.org/2000/svg" xmlns:xlink="http://www.w3.org/1999/xlink" xmlns:svgjs="http://svgjs.com/svgjs" version="1.1" width="512" height="512" x="0" y="0" viewBox="0 0 511 511.99945" style="enable-background:new 0 0 512 512" xml:space="preserve" class=""><g><path xmlns="http://www.w3.org/2000/svg" d="m342.585938 311.527344c19.226562 20.429687 50.6875 20.429687 69.914062 0l7.203125-7.65625-10.824219-4.191406c-2.449218-.949219-4.0625-3.300782-4.0625-5.925782v-20.027344c-7.554687 5.214844-16.703125 8.277344-26.558594 8.277344-10.316406 0-19.378906-2.832031-26.792968-7.570312v19.09375c0 2.761718-1.699219 5.238281-4.273438 6.238281l-11.484375 4.453125zm0 0" fill="#ffbeab" data-original="#ffbeab" style=""/><path xmlns="http://www.w3.org/2000/svg" d="m381.320312 281.898438c-1.015624.0625-2.035156.105468-3.066406.105468-10.3125 0-19.378906-2.832031-26.792968-7.570312v19.09375c0 2.761718-1.695313 5.238281-4.269532 6.238281l-11.488281 4.453125 6.882813 7.308594c10.566406 11.230468 24.832031 16.273437 38.734374 15.15625zm0 0" fill="#f7af9f" data-original="#f7af9f" style=""/><path xmlns="http://www.w3.org/2000/svg" d="m475.390625 325.4375-57.289063-22.1875-7.382812 7.847656c-18.230469 19.367188-48.058594 19.367188-66.289062 0l-7.078126-7.519531-56.390624 21.859375s-26.101563 10.730469-26.101563 40.488281v127.152344c0 6.570313 5.328125 11.894531 11.898437 11.894531h222.839844c6.570313 0 11.894532-5.324218 11.894532-11.894531v-127.152344c0-29.757812-26.101563-40.488281-26.101563-40.488281zm0 0" fill="#4049e3" data-original="#54a0ff" style="" class=""/><path xmlns="http://www.w3.org/2000/svg" d="m284.863281 493.078125v-142.238281c0-15.652344 7.222657-26.035156 14.070313-32.367188l-17.96875 6.964844s-26.101563 10.730469-26.101563 40.488281v127.152344c0 6.570313 5.324219 11.894531 11.894531 11.894531h30c-6.570312 0-11.894531-5.324218-11.894531-11.894531zm0 0" fill="#2b33c1" data-original="#338def" style="" class=""/><path xmlns="http://www.w3.org/2000/svg" d="m210.636719 78.878906-28.929688 20.042969c-1.800781 1.25-1.800781 3.910156 0 5.160156l28.929688 20.042969c2.082031 1.441406 4.921875-.046875 4.921875-2.578125v-40.085937c0-2.53125-2.839844-4.019532-4.921875-2.582032zm0 0" fill="#4049e3" data-original="#54a0ff" style="" class=""/><path xmlns="http://www.w3.org/2000/svg" d="m295 8.546875 28.929688 20.042969c1.800781 1.25 1.800781 3.910156 0 5.15625l-28.929688 20.042968c-2.078125 1.441407-4.921875-.046874-4.921875-2.578124v-40.085938c-.003906-2.53125 2.839844-4.019531 4.921875-2.578125zm0 0" fill="#e33b39" data-original="#ff6b6b" style="" class=""/><path xmlns="http://www.w3.org/2000/svg" d="m204.710938 104.082031c-1.800782-1.25-1.800782-3.910156 0-5.15625l10.851562-7.519531v-9.945312c0-2.53125-2.84375-4.019532-4.925781-2.582032l-28.929688 20.042969c-1.800781 1.25-1.800781 3.910156 0 5.160156l28.929688 20.042969c2.082031 1.441406 4.921875-.046875 4.921875-2.578125v-9.949219zm0 0" fill="#2b33c1" data-original="#338def" style="" class=""/><path xmlns="http://www.w3.org/2000/svg" d="m313.078125 21.074219-18.078125-12.527344c-2.078125-1.441406-4.921875.046875-4.921875 2.578125v40.085938c0 2.53125 2.84375 4.023437 4.921875 2.578124l18.078125-12.523437zm0 0" fill="#c32e2c" data-original="#ee5253" style="" class=""/><path xmlns="http://www.w3.org/2000/svg" d="m378.175781 120.039062c-35.257812 0-63.839843 28.582032-63.839843 63.839844v23.570313c4.265624-3.957031 10.335937-4.726563 16.261718-3.9375v-3.179688c0-2.527343 2.160156-4.527343 4.664063-4.335937 24.683593 1.773437 49.800781-6.070313 68.792969-18.476563 1.773437-1.160156 4.121093-.871093 5.5625.675781 16.238281 17.453126 16.140624 16.78125 16.140624 19.058594v6.246094c6.492188-.972656 12.253907-.34375 16.257813 3.378906v-23c0-35.257812-28.582031-63.839844-63.839844-63.839844zm0 0" fill="#576574" data-original="#576574" style="" class=""/><path xmlns="http://www.w3.org/2000/svg" d="m344.339844 183.878906c0-30.089844 20.820312-55.300781 48.835937-62.050781-4.8125-1.160156-9.832031-1.789063-15-1.789063-35.257812 0-63.835937 28.582032-63.835937 63.839844v23.570313c4.265625-3.957031 10.332031-4.726563 16.261718-3.9375v-3.179688c0-2.527343 2.15625-4.527343 4.660157-4.335937 3.023437.214844 6.054687.285156 9.078125.222656zm0 0" fill="#3e4b5a" data-original="#3e4b5a" style="" class=""/><path xmlns="http://www.w3.org/2000/svg" d="m425.308594 201.757812v35.679688c0 .386719-.019532.769531-.027344 1.152344 12.625 1.914062 22.515625-7.210938 22.515625-18.414063 0-11.226562-9.898437-20.308593-22.488281-18.417969zm0 0" fill="#ffbeab" data-original="#ffbeab" style=""/><path xmlns="http://www.w3.org/2000/svg" d="m331.21875 237.566406v-35.9375c-11.078125-1.480468-22.660156 7.019532-22.660156 18.542969 0 11.277344 9.945312 20.484375 22.6875 18.558594-.007813-.390625-.027344-.777344-.027344-1.164063zm0 0" fill="#ffbeab" data-original="#ffbeab" style=""/><path xmlns="http://www.w3.org/2000/svg" d="m441.933594 206.640625c-4.085938-3.820313-9.976563-5.878906-16.625-4.882813v35.679688c0 .386719-.019532.769531-.027344 1.152344 6.664062 1.011718 12.566406-1.058594 16.652344-4.882813zm0 0" fill="#f7af9f" data-original="#f7af9f" style=""/><path xmlns="http://www.w3.org/2000/svg" d="m331.21875 233.925781c-3.761719-3.457031-6.03125-8.367187-6.03125-13.753906 0-5.230469 2.386719-9.832031 6.03125-13.167969v-5.375c-11.078125-1.480468-22.660156 7.019532-22.660156 18.542969 0 11.277344 9.945312 20.484375 22.6875 18.558594-.007813-.390625-.027344-.777344-.027344-1.164063zm0 0" fill="#f7af9f" data-original="#f7af9f" style=""/><path xmlns="http://www.w3.org/2000/svg" d="m409.617188 176.820312c-1.441407-1.550781-3.789063-1.839843-5.5625-.679687-18.992188 12.40625-44.109376 20.25-68.792969 18.476563-2.503907-.1875-4.664063 1.808593-4.664063 4.335937v38.136719c0 24.511718 19.207032 46.902344 48.257813 46.902344 25.859375 0 46.902343-21.039063 46.902343-46.902344v-41.214844c0-2.277344.097657-1.601562-16.140624-19.054688zm0 0" fill="#ffcdbf" data-original="#ffcdbf" style="" class=""/><path xmlns="http://www.w3.org/2000/svg" d="m360.601562 237.09375v-43.875c-8.324218 1.460938-16.855468 2.007812-25.339843 1.398438-2.503907-.1875-4.664063 1.808593-4.664063 4.335937v38.140625c0 24.511719 19.207032 46.898438 48.257813 46.898438 5.066406 0 9.941406-.816407 14.515625-2.3125-20.191406-6.3125-32.769532-24.753907-32.769532-44.585938zm0 0" fill="#ffbeab" data-original="#ffbeab" style=""/><path xmlns="http://www.w3.org/2000/svg" d="m96.105469 311.527344c19.226562 20.429687 50.6875 20.429687 69.914062 0l7.203125-7.65625-10.824218-4.191406c-2.449219-.949219-4.0625-3.300782-4.0625-5.925782v-20.027344c-7.554688 5.214844-16.707032 8.277344-26.5625 8.277344-10.3125 0-19.375-2.832031-26.789063-7.570312v19.09375c0 2.761718-1.699219 5.238281-4.273437 6.238281l-11.488282 4.453125zm0 0" fill="#ffbeab" data-original="#ffbeab" style=""/><path xmlns="http://www.w3.org/2000/svg" d="m134.839844 281.898438c-1.011719.0625-2.035156.105468-3.066406.105468-10.3125 0-19.375-2.832031-26.789063-7.570312v19.09375c0 2.761718-1.699219 5.238281-4.273437 6.238281l-11.488282 4.453125 6.882813 7.308594c10.570312 11.230468 24.835937 16.273437 38.734375 15.15625zm0 0" fill="#f7af9f" data-original="#f7af9f" style=""/><path xmlns="http://www.w3.org/2000/svg" d="m228.910156 325.4375-57.289062-22.1875-7.382813 7.847656c-18.226562 19.367188-48.058593 19.367188-66.285156 0l-7.078125-7.519531-56.390625 21.859375s-26.101563 10.730469-26.101563 40.488281v127.152344c0 6.570313 5.324219 11.894531 11.894532 11.894531h222.839844c6.570312 0 11.894531-5.324218 11.894531-11.894531v-127.152344c0-29.757812-26.101563-40.488281-26.101563-40.488281zm0 0" fill="#e33b39" data-original="#ff6b6b" style="" class=""/><path xmlns="http://www.w3.org/2000/svg" d="m38.382812 493.078125v-142.238281c0-15.652344 7.222657-26.035156 14.070313-32.367188l-17.96875 6.964844s-26.101563 10.730469-26.101563 40.488281v127.152344c0 6.570313 5.324219 11.894531 11.894532 11.894531h30.003906c-6.570312 0-11.898438-5.324218-11.898438-11.894531zm0 0" fill="#c32e2c" data-original="#ee5253" style="" class=""/><path xmlns="http://www.w3.org/2000/svg" d="m131.695312 120.039062c-35.257812 0-63.835937 28.582032-63.835937 63.839844v23.570313c4.265625-3.957031 10.335937-4.726563 16.261719-3.9375v-3.179688c0-2.527343 2.15625-4.527343 4.660156-4.335937 24.683594 1.773437 49.800781-6.070313 68.792969-18.476563 1.773437-1.160156 4.121093-.871093 5.5625.675781 16.238281 17.453126 16.140625 16.78125 16.140625 19.058594v6.246094c6.492187-.972656 12.253906-.34375 16.257812 3.378906v-23c0-35.257812-28.582031-63.839844-63.839844-63.839844zm0 0" fill="#576574" data-original="#576574" style="" class=""/><path xmlns="http://www.w3.org/2000/svg" d="m97.859375 183.878906c0-30.089844 20.820313-55.300781 48.835937-62.050781-4.8125-1.160156-9.832031-1.789063-15-1.789063-35.257812 0-63.835937 28.582032-63.835937 63.839844v23.570313c4.265625-3.957031 10.335937-4.726563 16.261719-3.9375v-3.179688c0-2.527343 2.160156-4.527343 4.664062-4.335937 3.023438.214844 6.050782.285156 9.074219.222656zm0 0" fill="#3e4b5a" data-original="#3e4b5a" style="" class=""/><path xmlns="http://www.w3.org/2000/svg" d="m178.828125 201.757812v35.679688c0 .386719-.019531.769531-.027344 1.152344 12.625 1.914062 22.515625-7.210938 22.515625-18.414063 0-11.226562-9.898437-20.308593-22.488281-18.417969zm0 0" fill="#ffbeab" data-original="#ffbeab" style=""/><path xmlns="http://www.w3.org/2000/svg" d="m84.738281 237.566406v-35.9375c-11.078125-1.480468-22.65625 7.019532-22.65625 18.542969 0 11.277344 9.941407 20.484375 22.683594 18.558594-.007813-.390625-.027344-.777344-.027344-1.164063zm0 0" fill="#ffbeab" data-original="#ffbeab" style=""/><path xmlns="http://www.w3.org/2000/svg" d="m195.457031 206.640625c-4.085937-3.820313-9.980469-5.878906-16.628906-4.882813v35.679688c0 .386719-.019531.769531-.027344 1.152344 6.664063 1.011718 12.566407-1.058594 16.65625-4.882813zm0 0" fill="#f7af9f" data-original="#f7af9f" style=""/><path xmlns="http://www.w3.org/2000/svg" d="m84.738281 233.925781c-3.757812-3.457031-6.03125-8.367187-6.03125-13.753906 0-5.230469 2.390625-9.832031 6.03125-13.167969v-5.375c-11.078125-1.480468-22.65625 7.019532-22.65625 18.542969 0 11.277344 9.941407 20.484375 22.683594 18.558594-.007813-.390625-.027344-.777344-.027344-1.164063zm0 0" fill="#f7af9f" data-original="#f7af9f" style=""/><path xmlns="http://www.w3.org/2000/svg" d="m163.136719 176.820312c-1.441407-1.550781-3.789063-1.839843-5.5625-.679687-18.992188 12.40625-44.109375 20.25-68.792969 18.476563-2.503906-.1875-4.664062 1.808593-4.664062 4.335937v38.136719c0 24.511718 19.207031 46.902344 48.257812 46.902344 25.859375 0 46.902344-21.039063 46.902344-46.902344v-41.214844c0-2.277344.097656-1.601562-16.140625-19.054688zm0 0" fill="#ffcdbf" data-original="#ffcdbf" style="" class=""/><path xmlns="http://www.w3.org/2000/svg" d="m114.121094 237.09375v-43.875c-8.320313 1.460938-16.851563 2.007812-25.339844 1.398438-2.5-.1875-4.660156 1.808593-4.660156 4.335937v38.140625c0 24.511719 19.203125 46.898438 48.253906 46.898438 5.066406 0 9.941406-.816407 14.515625-2.3125-20.191406-6.3125-32.769531-24.753907-32.769531-44.585938zm0 0" fill="#ffbeab" data-original="#ffbeab" style=""/><g xmlns="http://www.w3.org/2000/svg" fill="#020202"><path d="m19.898438 512h93.3125c4.144531 0 7.5-3.359375 7.5-7.5 0-4.144531-3.355469-7.5-7.5-7.5h-53.285157v-121.320312c0-4.140626-3.355469-7.5-7.5-7.5s-7.5 3.359374-7.5 7.5v121.320312h-25.027343c-2.425782 0-4.398438-1.972656-4.398438-4.398438v-127.152343c0-23.871094 20.117188-32.96875 21.414062-33.53125l51.578126-19.996094 3.613281 3.839844c21.214843 22.539062 56.003906 22.535156 77.210937 0l3.921875-4.164063 52.472657 20.320313c11.699218 5.085937 21.417968 17.746093 21.417968 33.53125v127.152343c0 2.425782-1.96875 4.398438-4.394531 4.398438h-25.027344v-121.320312c0-4.140626-3.355469-7.5-7.5-7.5s-7.5 3.359374-7.5 7.5v121.320312h-54.492187c-4.144532 0-7.5 3.355469-7.5 7.5 0 4.140625 3.355468 7.5 7.5 7.5h94.519531c4.484375 0 8.609375-1.542969 11.898437-4.109375 3.289063 2.566406 7.410157 4.109375 11.894532 4.109375h222.839844c10.695312 0 19.394531-8.703125 19.394531-19.398438v-52.691406c0-4.144531-3.355469-7.503906-7.5-7.503906-4.140625 0-7.5 3.359375-7.5 7.503906v52.691406c0 2.425782-1.972657 4.398438-4.394531 4.398438h-25.027344v-121.320312c0-4.140626-3.355469-7.5-7.5-7.5-4.144532 0-7.5 3.359374-7.5 7.5v121.320312h-142.78125v-121.320312c0-4.140626-3.359375-7.5-7.5-7.5-4.144532 0-7.5 3.359374-7.5 7.5v121.320312h-25.03125c-2.421875 0-4.390625-1.96875-4.394532-4.390625v-.003906-127.15625c0-.003907 0-.011719 0-.015625.007813-16.480469 10.359376-28.734375 21.414063-33.515625 9.613281-3.726563 41.667969-16.152344 51.578125-19.996094l3.617188 3.839844c21.210937 22.539062 56 22.535156 77.210937 0l3.921875-4.164063 52.460938 20.316406c12.652343 5.507813 21.429687 18.496094 21.429687 33.539063v39.453125c0 4.144531 3.355469 7.5 7.5 7.5 4.140625 0 7.5-3.355469 7.5-7.5v-39.453125c0-34.386719-29.496094-46.910156-30.753906-47.425781-.046875-.019532-.09375-.039063-.140625-.054688l-65.78125-25.476562v-13.753906c10.480468-8.644532 17.347656-20.488282 19.554687-33.464844 13.285157-1.640625 22.824219-12.671875 22.824219-25.570313 0-5.972656-2.070312-11.691406-5.777344-16.234375v-20.0625c0-40.332031-33.316406-72.667968-73.800781-71.304687-38.667969 1.304687-68.886719 33.570312-68.886719 72.082031v19.8125c-3.75 4.488281-5.78125 9.9375-5.78125 15.710938 0 12.828124 9.460938 23.882812 22.753906 25.5625 2.148438 13.222656 9.1875 25.863281 20.757813 34.59375v12.632812l-65.710937 25.476562c-.046876.015626-.09375.035157-.140626.054688-.84375.347656-14.421874 6.125-23.25 20.292969-6.15625-9.878907-15.988281-17.308594-23.25-20.292969-.046874-.019531-.097656-.039062-.144531-.058594l-65.78125-25.476562v-13.753906c10.503907-8.664063 17.355469-20.511719 19.558594-33.460938 13.277344-1.640625 22.820313-12.671875 22.820313-25.570312 0-5.972657-2.070313-11.691407-5.777344-16.234376v-20.066406c0-40.230468-33.210938-72.671875-73.800782-71.300781-38.667968 1.300781-68.886718 33.570313-68.886718 72.082031v19.8125c-3.75 4.484375-5.777344 9.9375-5.777344 15.707032 0 12.75 9.375 23.875 22.75 25.5625 2.148438 13.222656 9.1875 25.867187 20.757812 34.597656v12.632812c-69.699218 27.019532-65.730468 25.464844-66.402343 25.769532-4.277344 1.921874-30.199219 14.941406-30.199219 47.175781v127.152343c0 10.695313 8.699219 19.398438 19.398438 19.398438zm330.320312-205.953125c5.113281-2.242187 8.515625-7.382813 8.515625-12.996094v-5.203125c5.652344 1.976563 12.453125 3.183594 19.292969 3.183594h.027344c6.613281 0 13.109374-1.222656 19.03125-3.449219v5.699219c0 5.261719 3.0625 10.105469 7.730468 12.417969-15.09375 15.804687-39.3125 15.976562-54.597656.347656zm82.210938-76.285156v-20.09375c9.398437 3.519531 9.332031 16.628906 0 20.09375zm-110.164063 0c-4.332031-1.605469-7.042969-5.628907-7.042969-10.054688 0-4.25 3.046875-7.859375 7.042969-9.605469zm.746094-35.40625c-.082031.011719-1.933594.382812-2.007813.402343v-10.570312c0-30.46875 24.398438-56.082031 54.390625-57.089844 31.960938-1.070312 58.292969 24.410156 58.292969 56.3125v11.0625c-.425781-.085937-.851562-.164062-1.285156-.230468-.15625-3.0625-1.550782-4.921876-3.550782-7.269532-2.28125-2.6875-5.582031-6.070312-14.570312-15.730468-3.917969-4.210938-10.3125-5.015626-15.15625-1.847657-19.183594 12.527344-42.574219 18.824219-64.128906 17.277344-5.242188-.398437-10.136719 2.730469-11.984375 7.683594zm14.253906 42.269531v-34.808594c23.484375.917969 47.867187-6.027344 67.820313-18.4375 6.453124 6.921875 10.640624 11.308594 12.339843 13.269532v39.539062c0 20.953125-17.480469 40.105469-40.0625 39.820312-23.382812-.316406-40.097656-18.035156-40.097656-39.382812zm-233.675781 69.421875c5.113281-2.242187 8.511718-7.382813 8.511718-12.996094v-5.203125c12.242188 4.273438 26.203126 4.296875 38.355469-.265625v5.699219c0 5.261719 3.0625 10.105469 7.726563 12.417969-15.09375 15.804687-39.3125 15.976562-54.59375.347656zm89.246094-86.339844c0 4.429688-2.710938 8.445313-7.039063 10.054688v-20.089844c4.40625 1.632813 7.039063 5.699219 7.039063 10.035156zm-117.203126 10.054688c-4.332031-1.605469-7.039062-5.628907-7.039062-10.054688 0-4.316406 3.113281-7.886719 7.039062-9.605469zm.75-35.40625c-.082031.011719-1.933593.382812-2.011718.402343v-10.570312c0-30.46875 24.398437-56.082031 54.390625-57.089844 32.269531-1.082031 58.296875 24.726563 58.296875 56.3125v11.0625c-.425782-.085937-.855469-.164062-1.285156-.230468-.238282-4.667969-2.367188-6.050782-18.125-23v-.003907c-3.941407-4.234375-10.316407-5.007812-15.15625-1.847656-19.183594 12.53125-42.570313 18.824219-64.128907 17.28125-5.316406-.402344-10.167969 2.832031-11.980469 7.683594zm14.25 42.269531v-34.808594c23.363282.917969 47.707032-5.925781 67.820313-18.4375 6.714844 7.199219 10.652344 11.320313 12.34375 13.269532v39.535156c0 20.925781-17.347656 39.621094-39.019531 39.828125-24.175782.203125-41.144532-17.929688-41.144532-39.386719zm0 0" fill="#020202" data-original="#020202" style="" class=""/><path d="m177.207031 109.773438 28.929688 20.042968c7.035156 4.875 16.695312-.148437 16.695312-8.746094v-12.542968h102.21875c4.140625 0 7.5-3.355469 7.5-7.5 0-4.140625-3.359375-7.5-7.5-7.5h-102.21875v-12.542969c0-8.574219-9.652343-13.628906-16.695312-8.742187l-28.933594 20.042968c-6.09375 4.226563-6.09375 13.261719.003906 17.488282zm30.625-20.457032v23.425782l-16.90625-11.714844zm0 0" fill="#020202" data-original="#020202" style="" class=""/><path d="m180.128906 38.195312h102.21875v12.542969c0 8.574219 9.652344 13.621094 16.695313 8.742188l28.929687-20.042969c6.097656-4.226562 6.097656-13.261719 0-17.484375l-28.929687-20.046875c-7.050781-4.882812-16.695313.175781-16.695313 8.746094v12.542968h-102.21875c-4.144531 0-7.5 3.355469-7.5 7.5 0 4.140626 3.355469 7.5 7.5 7.5zm117.21875-19.214843 16.902344 11.714843-16.902344 11.710938zm0 0" fill="#020202" data-original="#020202" style="" class=""/></g></g></svg>
